<svg width="38" height="37" xmlns="http://www.w3.org/2000/svg"><g id="Desktop-HD-Copy" fill="none" fill-rule="evenodd" transform="translate(-204 -734)"><g id="book" transform="translate(204 734)" fill="#000" fill-rule="nonzero"><path d="M37.367 6.144h-1.9V2.458C35.467 1.1 34.332 0 32.933 0h-1.9a.624.624 0 0 0-.633.614v3.073h-8.867a.643.643 0 0 0-.447.18L19 5.89l-2.086-2.023a.643.643 0 0 0-.447-.18h-13.3a.624.624 0 0 0-.634.614v1.843h-1.9A.624.624 0 0 0 0 6.76v29.49c0 .34.284.615.633.615h36.734c.35 0 .633-.275.633-.615V6.76a.624.624 0 0 0-.633-.615zm-36.1 29.493V7.373h1.266v26.42c0 .34.284.615.634.615h13.037l1.267 1.229H1.267zm17.1-.869l-1.453-1.409a.643.643 0 0 0-.447-.18H3.8V4.915h12.404l2.163 2.098v27.755zm13.3-33.54h1.266c.7 0 1.267.551 1.267 1.23v27.364a2.574 2.574 0 0 0-1.267-.33h-1.266V1.23zM19.633 7.014l2.163-2.098H30.4V6.76h-3.8v1.229h3.8v1.228h-8.867v1.23H30.4v1.228h-8.867v1.229H30.4v1.229h-8.867v1.229H30.4v4.915h-3.8v1.229h3.8v1.229h-8.867v1.229H30.4v1.229h-8.867v1.228H30.4v1.23h-8.867v1.228H30.4v1.229c0 .34.284.614.633.614h1.9c.7 0 1.267.55 1.267 1.23 0 .678-.567 1.228-1.267 1.228h-11.4a.643.643 0 0 0-.447.18l-1.453 1.409V7.013zm17.1 28.624H20.53l1.267-1.229h11.137c1.4 0 2.534-1.1 2.534-2.458V7.373h1.266v28.264z" id="Shape"/><path id="Rectangle-path" d="M8.233 6.759H9.5v1.229H8.233zm2.534 0h5.7v1.229h-5.7zM5.7 9.216h10.767v1.229H5.7zm0 2.458h10.767v1.229H5.7zm0 2.458h10.767v1.229H5.7zm0 2.458h6.967v1.229H5.7zm2.533 3.686H9.5v1.229H8.233zm2.534 0h5.7v1.229h-5.7zM5.7 22.734h10.767v1.229H5.7zm0 2.458h10.767v1.229H5.7zm0 2.457h10.767v1.229H5.7zm0 2.458h6.967v1.229H5.7zM24.067 6.759h1.267v1.229h-1.267zm-2.534 9.831H28.5v1.229h-6.967zm2.534 3.686h1.267v1.229h-1.267zm-2.534 9.831H28.5v1.229h-6.967z"/></g></g></svg>