<svg width="38" height="38" xmlns="http://www.w3.org/2000/svg"><g id="Desktop-HD-Copy" fill="none" fill-rule="evenodd" transform="translate(-206 -787)"><g id="coding" transform="translate(206 787)" fill="#000" fill-rule="nonzero"><g id="Group"><path d="M37.584 4.905a.563.563 0 0 0-.412-.343.579.579 0 0 0-.52.15l-2.682 2.61a.199.199 0 0 1-.275 0l-1.743-1.695a.186.186 0 0 1 0-.268l2.683-2.609a.542.542 0 0 0 .154-.505.557.557 0 0 0-.352-.4c-2.017-.753-4.307-.28-5.833 1.205a5.237 5.237 0 0 0-1.38 5.267l-1.987 1.767c-.3-.155-.61-.294-.927-.414l.081-1.032a1.036 1.036 0 0 0-.885-1.1l-1.4-.228a1.06 1.06 0 0 0-1.206.758l-.27 1a9.238 9.238 0 0 0-.89.08l-.266-.554V7.34l-.001-.022c0-.009 0-.018-.002-.027l-.001-.01a.539.539 0 0 0-.09-.244.578.578 0 0 0-.786-.159c-.604.386-2.043.623-2.809.623-1.876 0-3.683-.652-5.218-1.842L8.777 3.78A6.23 6.23 0 0 1 9.931 2.5c1.778-1.47 3.868-1.397 3.888-1.396 1.32.067 2.573.649 3.723 1.73 1.024.963 1.79 2.336 2.273 4.079a.57.57 0 0 0 .696.389.55.55 0 0 0 .4-.677c-.538-1.938-1.406-3.481-2.58-4.585C16.98.769 15.481.083 13.877.003c-.103-.005-2.55-.107-4.682 1.658a7.537 7.537 0 0 0-1.612 1.891v.001l-.003.004-.005.007v.002a6.516 6.516 0 0 0-.887 2.155 6.449 6.449 0 0 0-.101 2.071.55.55 0 0 0 .239.393.578.578 0 0 0 .46.083c.143-.034.284-.072.423-.115v3.411c0 1.923.982 3.626 2.483 4.664v.91c0 .45-.248.86-.654 1.15a2.306 2.306 0 0 1-.897.37l-2.621.5c-2.43.462-4.127 2.232-4.127 4.305v7.728c0 1.363.537 2.653 1.51 3.632l1.453 1.46H.621a.56.56 0 0 0-.568.552.56.56 0 0 0 .568.552h25.877a.56.56 0 0 0 .567-.552.56.56 0 0 0-.567-.552h-3.734l1.397-1.665a5.665 5.665 0 0 0 1.331-3.633v-5.522a8.99 8.99 0 0 0 .952-.609l.864.608a1.083 1.083 0 0 0 1.426-.16l.933-1.04a1.009 1.009 0 0 0-.035-1.396l-.735-.747c.196-.342.368-.698.516-1.063l1.06.079a1.054 1.054 0 0 0 1.131-.861l.236-1.362a1.03 1.03 0 0 0-.78-1.172l-1.03-.263a8.524 8.524 0 0 0-.08-.864l.963-.44a1.02 1.02 0 0 0 .548-1.29l-.485-1.298a1.06 1.06 0 0 0-1.103-.676l.948-1.021c1.94.598 4.07.103 5.524-1.311a5.224 5.224 0 0 0 1.24-5.672zm-18.11 6.659v-1.257c.014-.002.028-.002.043-.005a8.087 8.087 0 0 1 1.548-.136h.005a.565.565 0 0 0 .549-.412l.363-1.345 1.272.208-.109 1.386a.552.552 0 0 0 .385.565c.275.09.545.196.809.315l-1.073.954a6.766 6.766 0 0 0-3.795-.175l.002-.098zm-.154 1.292a5.57 5.57 0 0 1 2.966-.148l-5.088 4.524c-.002-.031-.005-.062-.005-.094v-1.057a5.715 5.715 0 0 0 2.127-3.225zM8.145 6.802a.571.571 0 0 0-.199.088 5.858 5.858 0 0 1-.265.105 5.381 5.381 0 0 1 .47-2.123c.365.436.755.837 1.167 1.202a6.32 6.32 0 0 1-.935.612 6.54 6.54 0 0 1-.238.116zm.699 4.762V7.697c.025-.013.051-.025.076-.039a7.57 7.57 0 0 0 1.293-.872c1.656 1.177 3.576 1.818 5.572 1.818a9.89 9.89 0 0 0 2.549-.387l.004 3.347c0 2.545-2.13 4.616-4.747 4.616s-4.747-2.07-4.747-4.616zm15.513 19.422a4.576 4.576 0 0 1-1.076 2.934l-.892 1.063v-8.768c0-.874-.652-1.602-1.508-1.75.036-.305.193-.583.443-.778l.6-.468a.542.542 0 0 0 .087-.776.579.579 0 0 0-.798-.085l-.6.468c-.513.4-.823.98-.87 1.612H10.76a.56.56 0 0 0-.568.552.56.56 0 0 0 .568.552h9.803c.381 0 .692.302.692.673v9.623a.452.452 0 0 1-.458.445H6.588a.465.465 0 0 1-.195-.044l-.225-.225a.433.433 0 0 1-.037-.176v-9.623c0-.371.31-.673.692-.673h1.691a.56.56 0 0 0 .568-.552.56.56 0 0 0-.568-.552H7.388a2.245 2.245 0 0 0-.87-1.612l-.6-.468a.579.579 0 0 0-.798.085.542.542 0 0 0 .088.776l.6.468c.266.208.425.51.447.839-.73.233-1.26.901-1.26 1.689v8.62l-.775-.78a4.04 4.04 0 0 1-1.192-2.864v-7.728c0-1.537 1.32-2.862 3.21-3.222l2.62-.5c.333-.062.641-.167.92-.306.34.253.704.472 1.087.654a.579.579 0 0 0 .76-.254.545.545 0 0 0-.261-.738 5.348 5.348 0 0 1-.653-.37 2.4 2.4 0 0 0 .616-1.589v-.295a5.995 5.995 0 0 0 2.264.44 6 6 0 0 0 2.467-.528v.383a2.4 2.4 0 0 0 .616 1.589 5.414 5.414 0 0 1-3.631.854.564.564 0 0 0-.632.48.555.555 0 0 0 .495.616 6.561 6.561 0 0 0 4.699-1.242c.28.139.588.244.92.307l2.622.5a4.938 4.938 0 0 1 1.12.352c1.27.58 2.09 1.658 2.09 2.869v7.523zm-.99-11.062l3.002-3.237a5.14 5.14 0 0 1 .058 2.042 5.218 5.218 0 0 1-1.462 2.806 4.674 4.674 0 0 0-1.599-1.611zm6.564-5.902l.44 1.179-1.293.59a.548.548 0 0 0-.316.604c.098.494.145 1 .14 1.506a.555.555 0 0 0 .424.538l1.383.353-.214 1.237-1.425-.106a.568.568 0 0 0-.582.375 7.539 7.539 0 0 1-.78 1.609.54.54 0 0 0 .07.674l.99 1.003-.848.946-1.159-.815a.58.58 0 0 0-.696.023c-.184.149-.376.29-.573.422v-.697a3.69 3.69 0 0 0-.09-.81 6.328 6.328 0 0 0 2.145-3.741 6.202 6.202 0 0 0-.286-3.187l1.242-1.338a.642.642 0 0 0 .045-.01l1.383-.355zm5.611-4.226a4.427 4.427 0 0 1-4.678.935.579.579 0 0 0-.632.143l-4.024 4.338a.577.577 0 0 0-.046.05l-3.853 4.154a6.2 6.2 0 0 0-.944-.258l-2.62-.5a2.309 2.309 0 0 1-.98-.434L28.262 8.89a.542.542 0 0 0 .149-.6 4.147 4.147 0 0 1 .996-4.46 4.423 4.423 0 0 1 3.731-1.185L31.15 4.579a1.267 1.267 0 0 0 0 1.828l1.743 1.695a1.358 1.358 0 0 0 1.88 0l1.99-1.934a4.152 4.152 0 0 1-1.22 3.628z" id="Shape"/><path d="M13.557 13.813a2.39 2.39 0 0 0 1.68-.677.541.541 0 0 0 0-.78.58.58 0 0 0-.802 0 1.251 1.251 0 0 1-.878.353 1.25 1.25 0 0 1-.878-.354.58.58 0 0 0-.803 0 .541.541 0 0 0 0 .781 2.396 2.396 0 0 0 1.68.677z" id="Shape"/></g><circle id="Oval" cx="11.339" cy="8.887" r="1"/><circle id="Oval" cx="15.629" cy="8.887" r="1"/><path d="M13.79 28.806c-1.183 0-2.145.825-2.145 1.84 0 1.013.962 1.838 2.145 1.838s2.145-.825 2.145-1.839-.962-1.839-2.145-1.839zm0 2.606c-.493 0-.894-.344-.894-.767 0-.423.401-.767.894-.767.494 0 .895.344.895.767 0 .423-.401.767-.895.767z" id="Shape"/></g></g></svg>