<svg id="Capa_1" xmlns="http://www.w3.org/2000/svg" viewBox="0 0 480.059 480.059"><path transform="translate(-.596 1.724)" d="M312.065 103.644h16v16h-16z"/><path d="M472.059 255.405h-113.6l9.6-143.472a8.08 8.08 0 0 0-2.152-6.016 8.752 8.752 0 0 0-5.848-2.512l-16 .088.08 16h7.408l-1.912 28.616-23.2 12.872a88.328 88.328 0 0 1-78.4 3.448v-44.448l48.04-.248-.08-16-47.936.248V67.797l84.296-53.6L323.763.653l-88 56a8 8 0 0 0-3.704 6.752v40.656l-111.96.576a8 8 0 0 0-7.936 8.536l8.904 133.52a136.522 136.522 0 0 0-11.2 26.76 79.519 79.519 0 0 0-69.328-40.72 8 8 0 0 0-8 8 78.984 78.984 0 0 0 13.12 43.656 44.3 44.3 0 0 0-9.6 6.4l-2.32 2.048c-28.226 24.792-40.025 63.401-30.48 99.736l4.888 18.888a99.516 99.516 0 0 0 41.2 57.92 56.048 56.048 0 0 0 58.776 2.28l-.448-.8a194.456 194.456 0 0 0 46.032 7.776c1.6.08 3.2.08 4.856.112v.656h105.496c119.187.106 215.894-96.428 216-215.616v-.384a8 8 0 0 0-8-8zm-116.657 20.36v-4.36h79.672c-3.08 64.858-42.504 122.422-101.864 148.736a169.69 169.69 0 0 1-46.544 13.048 183.594 183.594 0 0 0 31.512-35.608 216.663 216.663 0 0 0 37.224-121.816zM232.059 120.061v38.68a104.243 104.243 0 0 0-78.136 9.144l-21.296 11.832-3.936-59.128 103.368-.528zM145.21 238.949l.976-1.264-10.216-7.88-2.168-32.408 27.856-15.528a88.296 88.296 0 0 1 79.056-3.2 104.27 104.27 0 0 0 93.448-3.76l14.136-7.848-3.584 53.792a26.693 26.693 0 0 0-5.808-3.4l-11.952-4.984a22.675 22.675 0 0 0-19.704 1.04 23.15 23.15 0 0 0-11.712 16.456 211.128 211.128 0 0 1-72.28 125.776 99.048 99.048 0 0 0-32.896-62.92l-2.32-2.048c-16.149-14.377-40.405-14.718-56.952-.8l-10.072 8.4a119.957 119.957 0 0 1 24.192-59.424zm-41.727 64.704c-28.245-3.892-50.452-26.099-54.344-54.344 28.239 3.902 50.441 26.104 54.344 54.344zM58.218 456.077a83.577 83.577 0 0 1-34.584-48.624l-4.896-18.88c-8.008-30.52 1.919-62.945 25.64-83.752l2.32-2.048a27.791 27.791 0 0 1 9.704-5.368 79.198 79.198 0 0 0 55.656 22.8 7.865 7.865 0 0 0 1.504-.304 21.7 21.7 0 0 0 12.408-4.904l15.32-12.8c10.5-8.825 25.886-8.604 36.128.52l2.32 2.048a83.153 83.153 0 0 1 28.192 62.52 211.298 211.298 0 0 1-105.472 37.72l-35.432 2.664a8 8 0 0 0-7.4 8v29.144a8.001 8.001 0 0 0 4 6.904l1.112.656a194.817 194.817 0 0 0 20.256 10.232 40.227 40.227 0 0 1-26.776-6.528zm96.241 6.576l-.008.008a179.314 179.314 0 0 1-78.8-22.496v-17.096l28-2.112c104.155-7.794 189.704-85.347 207.648-188.24a7.2 7.2 0 0 1 3.64-5.16 6.67 6.67 0 0 1 5.848-.312l11.952 4.992a10.744 10.744 0 0 1 6.632 9.952v33.6a200.797 200.797 0 0 1-34.48 112.864c-33.644 49.402-90.765 77.501-150.432 74zm109.6.752h-25.496a183.971 183.971 0 0 0 25.496-13.432v.744a185.612 185.612 0 0 0 75.632-15.952c65.139-28.881 108.293-92.172 111.384-163.36h12.824c-4.189 107.307-92.452 192.108-199.84 192z"/><path d="M368.059 287.405h16v16h-16zm-24 80h16v16h-16zm24-32h16v16h-16z"/></svg>