<svg width="104" height="21" xmlns="http://www.w3.org/2000/svg"><g id="Desktop-HD" fill="none" fill-rule="evenodd" transform="translate(-124 -92)"><path d="M137.3 98.35l-10.225 4.775L137.3 107.9l-.425.9-12.175-5.675 12.175-5.675.425.9zm11.625-5.075c.25.2.454.462.612.787.159.326.238.688.238 1.088 0 .467-.167.87-.5 1.212-.333.342-.758.513-1.275.513-.567 0-1.025-.158-1.375-.475-.35-.317-.525-.75-.525-1.3 0-.433.125-.817.375-1.15.25-.333.617-.567 1.1-.7-.05-.1-.154-.183-.313-.25a1.517 1.517 0 0 0-.587-.1c-.633 0-1.083.217-1.35.65-.183.25-.308.617-.375 1.1-.067.483-.1 1.208-.1 2.175V99.1h2.675v.5h-2.675v9.825c0 .767.196 1.3.588 1.6.391.3.979.45 1.762.45V112l-.7-.025c-1.85-.05-3.05-.075-3.6-.075-.5 0-1.583.033-3.25.1v-.525c.6 0 1.017-.13 1.25-.387.233-.259.35-.73.35-1.413V99.6h-1.7v-.5h1.7c0-1.45.117-2.57.35-3.362a4.608 4.608 0 0 1 1.225-2.038c.367-.367.858-.667 1.475-.9a5.464 5.464 0 0 1 1.95-.35c1.033 0 1.925.275 2.675.825zM159.1 108.3l.45.15a5.962 5.962 0 0 1-1.788 2.763c-.858.758-1.929 1.137-3.212 1.137-1.767 0-3.17-.562-4.213-1.688-1.041-1.125-1.562-2.787-1.562-4.987 0-2.25.558-3.97 1.675-5.162 1.117-1.192 2.6-1.788 4.45-1.788 3.133 0 4.7 1.85 4.7 5.55h-7.025c-.017.25-.025.642-.025 1.175 0 1.1.154 2.017.462 2.75.309.733.709 1.267 1.2 1.6a2.78 2.78 0 0 0 1.588.5c1.367 0 2.467-.667 3.3-2zm-5.838-7.938c-.391.742-.637 1.888-.737 3.438h3.925c.033-1.317-.096-2.404-.387-3.263-.292-.858-.73-1.287-1.313-1.287-.6 0-1.096.37-1.488 1.112zM173.1 99.7c.283.317.483.725.6 1.225.117.5.175 1.175.175 2.025v6.725c0 .683.12 1.154.363 1.413.241.258.654.387 1.237.387V112c-1.667-.067-2.767-.1-3.3-.1-.5 0-1.583.033-3.25.1v-.525c.5 0 .85-.13 1.05-.387.2-.259.3-.73.3-1.413V101.9c0-.683-.112-1.2-.338-1.55-.225-.35-.629-.525-1.212-.525-.683 0-1.267.28-1.75.837-.483.559-.725 1.246-.725 2.063v6.95c0 .683.1 1.154.3 1.413.2.258.55.387 1.05.387V112c-1.533-.067-2.567-.1-3.1-.1-.5 0-1.65.033-3.45.1v-.525c.6 0 1.017-.13 1.25-.387.233-.259.35-.73.35-1.413V101.8c0-.767-.117-1.325-.35-1.675-.233-.35-.65-.525-1.25-.525v-.525c.533.05 1.05.075 1.55.075 1.483 0 2.7-.117 3.65-.35v2.25c.75-1.55 2.117-2.325 4.1-2.325 1.267 0 2.183.325 2.75.975zm15.35 0c.283.317.483.725.6 1.225.117.5.175 1.175.175 2.025v6.725c0 .683.12 1.154.363 1.413.241.258.654.387 1.237.387V112c-1.667-.067-2.767-.1-3.3-.1-.5 0-1.583.033-3.25.1v-.525c.5 0 .85-.13 1.05-.387.2-.259.3-.73.3-1.413V101.9c0-.683-.112-1.2-.338-1.55-.225-.35-.629-.525-1.212-.525-.683 0-1.267.28-1.75.837-.483.559-.725 1.246-.725 2.063v6.95c0 .683.1 1.154.3 1.413.2.258.55.387 1.05.387V112c-1.533-.067-2.567-.1-3.1-.1-.5 0-1.65.033-3.45.1v-.525c.6 0 1.017-.13 1.25-.387.233-.259.35-.73.35-1.413V101.8c0-.767-.117-1.325-.35-1.675-.233-.35-.65-.525-1.25-.525v-.525c.533.05 1.05.075 1.55.075 1.483 0 2.7-.117 3.65-.35v2.25c.75-1.55 2.117-2.325 4.1-2.325 1.267 0 2.183.325 2.75.975zm4.213 11.65c-.526-.55-.788-1.275-.788-2.175 0-.75.196-1.37.588-1.862a4.008 4.008 0 0 1 1.424-1.138c.559-.267 1.271-.55 2.138-.85.917-.317 1.587-.604 2.012-.862.426-.259.638-.613.638-1.063v-1.95c0-.7-.162-1.246-.488-1.638-.325-.391-.829-.587-1.512-.587-.8 0-1.408.2-1.825.6.467.167.83.417 1.088.75.258.333.387.725.387 1.175 0 .567-.192 1.017-.575 1.35-.383.333-.85.5-1.4.5-.583 0-1.033-.183-1.35-.55-.317-.367-.475-.825-.475-1.375 0-.467.112-.862.338-1.188.225-.325.57-.629 1.037-.912.45-.267 1.004-.475 1.662-.625a9.735 9.735 0 0 1 2.163-.225c.817 0 1.525.083 2.125.25.6.167 1.1.45 1.5.85.367.367.612.817.738 1.35.125.533.187 1.258.187 2.175v6.8c0 .4.037.683.112.85.076.167.221.25.438.25.25 0 .55-.142.9-.425l.25.425c-.75.617-1.667.925-2.75.925-.917 0-1.558-.183-1.925-.55-.367-.367-.558-.858-.575-1.475-.833 1.35-2.058 2.025-3.675 2.025-1.067 0-1.862-.275-2.388-.825zm6.012-1.8v-5.125c-.2.333-.625.7-1.275 1.1-.65.417-1.142.833-1.475 1.25-.333.417-.5 1.017-.5 1.8 0 .683.142 1.187.425 1.513.283.325.658.487 1.125.487.65 0 1.217-.342 1.7-1.025zm7.05 2.8h-.825l6.8-18.4h.825l-6.8 18.4zm9.325-14l.425-.9 12.175 5.675-12.175 5.675-.425-.9 10.225-4.775-10.225-4.775z" id="&lt;fenna/&gt;" fill="#4A4A4A"/></g></svg>