<svg width="38" height="28" xmlns="http://www.w3.org/2000/svg"><g id="Desktop-HD-Copy" fill="none" fill-rule="evenodd" transform="translate(-701 -780)"><g id="mail" transform="translate(701 780)" fill="#FFF" fill-rule="nonzero"><path d="M37.436 0h-5.907c-.312 0-.564.283-.564.632 0 .35.252.633.564.633h4.445L19 18.528 2.026 1.265h26.87c.311 0 .564-.283.564-.633 0-.349-.253-.632-.565-.632H.565C.252 0 0 .283 0 .632v26.736c0 .349.253.632.564.632h36.872c.311 0 .564-.283.564-.632V.632C38 .283 37.747 0 37.436 0zM2.03 26.735l3.954-4.02a.687.687 0 0 0 .038-.893.523.523 0 0 0-.797-.044L1.13 25.944V2.06l11.74 11.943-5.787 5.885a.687.687 0 0 0-.038.893c.21.259.566.278.797.043l5.868-5.967 4.91 4.993a.53.53 0 0 0 .379.164.53.53 0 0 0 .38-.164l4.909-4.993 11.68 11.878H2.03zm34.841-.79L25.13 14.002 36.87 2.06v23.884z" id="Shape"/></g></g></svg>