<svg width="34" height="38" xmlns="http://www.w3.org/2000/svg"><g id="Desktop-HD-Copy" fill="none" fill-rule="evenodd" transform="translate(-703 -726)"><g id="phone" transform="translate(703 726)" fill="#FFF" fill-rule="nonzero"><path d="M33.904 31.21c-.108-.912-.578-1.697-1.291-2.156l-8.37-5.386c-1.025-.66-2.326-.468-3.162.468l-1.649 1.842c-.439.49-1.133.534-1.614.101a51.757 51.757 0 0 1-7.224-8.074 1.47 1.47 0 0 1 .09-1.804l1.648-1.843c.837-.935 1.009-2.388.419-3.534L7.93 1.469C7.522.672 6.819.147 6.004.026c-.815-.12-1.616.183-2.198.833L1.321 3.635c-1.734 1.938-1.762 5.483-.078 9.982 1.618 4.325 4.638 9.087 8.504 13.408 3.866 4.32 8.127 7.696 11.997 9.505 1.981.926 3.756 1.389 5.254 1.389 1.545 0 2.796-.493 3.677-1.477l2.484-2.776c.581-.65.853-1.545.745-2.456zm-10.21-6.477l8.37 5.386c.415.266.688.722.75 1.252.053.444-.05.881-.284 1.233L21.406 25.51l.452-.505c.486-.543 1.241-.654 1.837-.271zM5.86 1.243c.473.07.882.376 1.12.839l4.82 9.355c.342.665.242 1.51-.244 2.052l-.415.464L4.757 1.562a1.403 1.403 0 0 1 1.102-.318zm24.038 34.33c-1.377 1.54-4.194 1.476-7.729-.176-3.741-1.749-7.876-5.03-11.643-9.24-3.768-4.211-6.704-8.833-8.268-13.014-1.479-3.95-1.536-7.1-.159-8.639l1.844-2.061 6.393 12.41-.428.479c-.837.935-.91 2.415-.17 3.443a52.95 52.95 0 0 0 7.392 8.261c.92.827 2.244.746 3.08-.19l.391-.436 11.14 7.105-1.843 2.059z" id="Shape"/></g></g></svg>