<svg width="512" height="302" xmlns="http://www.w3.org/2000/svg"><g id="Page-1" fill="none" fill-rule="evenodd"><g id="pointing-right" transform="matrix(-1 0 0 1 512 0)" fill="#000" fill-rule="nonzero"><path d="M470.857 27.571h-256C195.657 2.885 175.543.142 147.2.142h-.914c-38.4 0-67.657 26.514-76.8 36.571H36.571C16.457 36.714 0 53.171 0 73.286v165.486c0 20.114 16.457 35.657 36.571 35.657H70.4c35.657 26.514 48.457 27.429 112.457 27.429 33.829 0 72.229-9.143 83.2-10.971 21.029 5.486 42.971-5.486 50.286-26.514 2.743-8.229 2.743-18.286 0-26.514 16.457 0 32-10.971 37.486-27.429l.914-.914c3.657-10.057 2.743-21.943-1.829-31.086a38.907 38.907 0 0 0-2.707-4.579C369.39 170.177 384 152.816 384 132.714c0-8.229-2.743-16.457-7.314-22.857h94.171c22.857 0 41.143-18.286 41.143-41.143s-18.286-41.143-41.143-41.143zm-392.228 230.4c-1.829-.914-3.657-1.829-5.486-1.829H36.571c-10.057 0-18.286-8.229-18.286-17.371V73.286C18.285 63.229 26.514 55 36.571 55h36.571c2.743 0 5.486-.914 7.314-3.657 0 0 27.429-32 64.914-32.914h.914c28.343 0 41.143 1.829 55.771 23.771l.914.914 7.159 8.461c22.036 28.897 45.949 60.642 55.013 73.825 9.143 14.629 11.886 26.514 6.4 33.829-3.843 4.612-11.562 6.626-18.814 5.525a17.164 17.164 0 0 1-3.129-.954c-10.971-4.571-30.171-17.371-51.2-34.743a10.391 10.391 0 0 0-3.052-1.592c-24.916-20.907-48.088-44.686-52.719-56.008-1.829-4.571-7.314-6.4-11.886-4.571-4.571 1.829-6.4 7.314-4.571 11.886 5.734 13.378 27.949 36.993 52.549 58.319-2.046 2.962-3.64 6.15-5.006 9.338l-.914 1.829c-3.522 10.125-2.794 20.668 1.243 29.702-14.033 2.767-26.476 12.786-31.415 26.984-7.314 21.029 4.571 44.8 25.6 52.114l62.6 21.669c-14.524 2.564-31.95 4.845-47.972 4.845-63.998-.001-71.312-.915-104.226-25.601zm110.628-61.257l71.309 24.684 24.404 8.488c4.309 1.664 7.752 4.272 10.256 7.47a27.381 27.381 0 0 1 1.916 3.244c2.743 5.486 2.743 11.886.914 17.371-3.657 11.886-16.457 18.286-29.257 13.714-.899 0-1.799-.22-2.698-.336l-91.473-31.664c-12.8-4.571-18.286-17.371-14.629-29.257 1.829-5.486 6.4-10.057 11.886-12.8 2.743-1.829 6.4-2.743 10.057-2.743 2.744.001 5.487.915 7.315 1.829zm133.486-21.028c5.486 1.829 10.057 5.486 12.8 10.971 2.743 4.571 2.743 10.971.914 16.457l-.914 1.829c-1.366 4.099-3.755 7.685-7.163 10.382-5.484 3.552-12.412 4.553-19.351 2.418l-18.286-6.4c-1.729-.576-3.367-.697-4.857-.451l-19.85-6.871-63.064-21.935c-11.886-4.571-17.371-16.457-13.714-28.343l.914-1.829c0-.914.914-2.743 1.829-3.657.754.583 1.496 1.149 2.242 1.722 16.367 12.993 32.496 23.881 44.435 29.152a62.951 62.951 0 0 0 2.694 1.126c4.412 1.858 9.179 2.709 14.029 2.711.5.016.999.032 1.513.032 6.336 0 12.666-1.533 18.121-4.406 7.201-3.218 13.702-8.036 18.45-13.88l29.258 10.972zm20.114-21.029H339.2l-21.029-2.743c-1.43 0-2.86.269-4.178.778l-20.507-7.178a10.052 10.052 0 0 0-1.611-.491c-.928-8.116-4.319-18.004-12.104-29.68a173.369 173.369 0 0 0-3.694-5.737l68.608-1.577c5.486 0 10.971 2.743 14.629 6.4 3.657 4.571 6.4 10.057 6.4 16.457 0 12.8-10.057 23.771-22.857 23.771zm128-63.086H265.143c-.583 0-1.14.05-1.679.13-10.128-13.897-22.786-30.532-34.569-45.844h241.963c12.8 0 22.857 10.057 22.857 22.857 0 12.8-10.058 22.857-22.858 22.857z" id="Shape"/></g></g></svg>