<svg width="38" height="30" xmlns="http://www.w3.org/2000/svg"><g id="Desktop-HD-Copy" fill="none" fill-rule="evenodd" transform="translate(-204 -680)"><g id="shopping" transform="translate(204 680)" fill="#000" fill-rule="nonzero"><path d="M37.334 0h-13.14a.684.684 0 0 0-.5.213.606.606 0 0 0-.162.494c.027.207.04.379.04.54 0 2.38-2.05 4.316-4.572 4.316-2.52 0-4.572-1.936-4.572-4.316a4.1 4.1 0 0 1 .04-.54.607.607 0 0 0-.161-.494.685.685 0 0 0-.5-.213H.667C.297 0 0 .282 0 .63v6.798c0 .283.201.532.491.607l6.057 1.559v19.465c0 .347.298.628.666.628h23.572c.368 0 .666-.281.666-.628V9.593l6.057-1.559A.636.636 0 0 0 38 7.427V.629C38 .282 37.702 0 37.334 0zm-.666 6.947l-6.057 1.56a.636.636 0 0 0-.491.606V28.43H7.88V9.113a.636.636 0 0 0-.49-.607l-6.058-1.56V1.259h11.764C13.102 4.326 15.748 6.82 19 6.82s5.898-2.494 5.905-5.562h11.763v5.689z" id="Shape"/><path d="M14.699 8.702L12.095 5.57c-.251-.302-.783-.302-1.034 0L8.458 8.702a.622.622 0 0 0-.146.398v6.888a.65.65 0 0 0 .662.637h5.207a.65.65 0 0 0 .663-.637V9.1a.621.621 0 0 0-.145-.398zm-1.18 6.65H9.637v-6.03l1.942-2.335 1.942 2.335v6.028z" id="Shape"/><path d="M11.578 0c-.492 0-.89.266-.89.594V6.53c0 .328.398.594.89.594s.89-.266.89-.594V.594c0-.328-.398-.594-.89-.594zm19 5.344c-.492 0-.89.266-.89.593v4.75c0 .328.398.594.89.594s.89-.266.89-.593v-4.75c.001-.328-.398-.594-.89-.594zm-23.156 0c-.492 0-.89.286-.89.64v7.033c0 .353.398.64.89.64s.89-.287.89-.64V5.983c0-.353-.398-.64-.89-.64zM27.25 9.5h-5.812c-.363 0-.657.266-.657.594 0 .328.294.594.657.594h5.811c.363 0 .657-.266.657-.594 0-.328-.294-.594-.657-.594z" id="Shape"/></g></g></svg>