<svg width="38" height="37" xmlns="http://www.w3.org/2000/svg"><g id="Desktop-HD-Copy" fill="none" fill-rule="evenodd" transform="translate(-205 -621)"><g id="dancing" transform="translate(205 621)" fill="#000" fill-rule="nonzero"><path d="M6.333 17.818c2.099 0 3.8-1.65 3.8-3.686s-1.701-3.687-3.8-3.687c-2.098 0-3.8 1.65-3.8 3.687.002 2.035 1.702 3.684 3.8 3.686zm0-6.144c1.4 0 2.534 1.1 2.534 2.458 0 1.357-1.135 2.458-2.534 2.458-1.399 0-2.533-1.1-2.533-2.458s1.134-2.458 2.533-2.458zM5.067 4.915c1.748.002 3.164 1.377 3.166 3.073 0 .339.284.614.634.614.35 0 .633-.275.633-.614.002-1.696 1.419-3.07 3.167-3.073.35 0 .633-.275.633-.614a.624.624 0 0 0-.633-.614C10.919 3.685 9.502 2.31 9.5.614A.624.624 0 0 0 8.867 0a.624.624 0 0 0-.634.614c-.002 1.696-1.418 3.07-3.166 3.073a.624.624 0 0 0-.634.614c0 .34.284.614.634.614zm3.8-2.089a4.41 4.41 0 0 0 1.52 1.475 4.41 4.41 0 0 0-1.52 1.475A4.41 4.41 0 0 0 7.347 4.3a4.41 4.41 0 0 0 1.52-1.475zM30.4 30.721c-1.748-.002-3.165-1.376-3.167-3.072a.624.624 0 0 0-.633-.614.624.624 0 0 0-.633.614c-.002 1.696-1.419 3.07-3.167 3.072a.624.624 0 0 0-.633.615c0 .34.283.614.633.614 1.748.002 3.165 1.377 3.167 3.072 0 .34.283.615.633.615.35 0 .633-.275.633-.615.002-1.695 1.419-3.07 3.167-3.072.35 0 .633-.275.633-.614a.624.624 0 0 0-.633-.615zm-3.8 2.09a4.41 4.41 0 0 0-1.52-1.475 4.41 4.41 0 0 0 1.52-1.475 4.41 4.41 0 0 0 1.52 1.475 4.41 4.41 0 0 0-1.52 1.474z" id="Shape"/><path d="M15.2 12.289c-1.05 0-1.9.825-1.9 1.843v2.458h-3.167v1.228h3.8c.35 0 .634-.275.634-.614v-3.072c0-.34.283-.615.633-.615.35 0 .633.276.633.615v4.3c0 .34-.283.615-.633.615h-5.067a.624.624 0 0 0-.633.615v3.072c0 .163.067.319.186.434l3.428 3.327a.605.605 0 0 1 .186.435v5.635a.624.624 0 0 1-.633.614.624.624 0 0 1-.634-.614v-4.916a.605.605 0 0 0-.185-.434l-2.534-2.458a.647.647 0 0 0-.895 0l-1.9 1.843a.602.602 0 0 0 0 .87l1.529 1.482a.605.605 0 0 1 .185.435v5.635c0 .34-.283.615-.633.615a.624.624 0 0 1-.633-.615v-4.915a.605.605 0 0 0-.186-.434L3.986 26.96a.605.605 0 0 1-.186-.435v-1.948h1.267c1.049 0 1.9-.825 1.9-1.843s-.851-1.843-1.9-1.843H3.8v-1.844H2.533v2.458c0 .34.284.614.634.614h1.9c.35 0 .633.276.633.615 0 .34-.284.614-.633.614H1.9a.624.624 0 0 1-.633-.614v-4.301c0-.34.283-.615.633-.615V16.59c-1.05 0-1.9.825-1.9 1.843v4.3c0 1.019.85 1.844 1.9 1.844h.633v1.948c0 .49.2.96.557 1.304l2.61 2.532v4.661c0 1.018.85 1.844 1.9 1.844 1.05 0 1.9-.826 1.9-1.844v-5.635a1.803 1.803 0 0 0-.557-1.303l-1.08-1.05 1.004-.974 1.9 1.844v4.66c0 1.019.85 1.844 1.9 1.844 1.049 0 1.9-.825 1.9-1.843V26.93a1.803 1.803 0 0 0-.557-1.304l-3.243-3.147v-2.203H15.2c1.05 0 1.9-.825 1.9-1.843v-4.301c0-1.018-.85-1.843-1.9-1.843zm13.933-4.916c2.099 0 3.8-1.65 3.8-3.686S31.232 0 29.133 0c-2.098 0-3.8 1.65-3.8 3.687.002 2.035 1.702 3.684 3.8 3.686zm0-6.144c1.4 0 2.534 1.1 2.534 2.458 0 1.357-1.135 2.457-2.534 2.457-1.399 0-2.533-1.1-2.533-2.457 0-1.358 1.134-2.458 2.533-2.458z" id="Shape"/><path d="M36.1 6.144h-3.8v1.23h3.8c.35 0 .633.274.633.614v3.686c0 .34-.283.615-.633.615a.624.624 0 0 1-.633-.615V9.216a.624.624 0 0 0-.634-.614H32.3a.624.624 0 0 0-.633.614v6.864c0 .163-.067.32-.186.435l-2.162 2.098a.602.602 0 0 0 0 .869l2.904 2.817a.602.602 0 0 1 0 .87l-.109.104a.647.647 0 0 1-.895 0l-3.909-3.792a.602.602 0 0 1 0-.869l1.638-1.589a.602.602 0 0 0 0-.868l-1.9-1.844a.647.647 0 0 0-.896 0L23.62 16.77a.605.605 0 0 0-.186.435v4.915c0 .34-.283.615-.633.615a.624.624 0 0 1-.633-.615v-5.635c0-.163.066-.32.185-.435l3.43-3.326a.605.605 0 0 0 .185-.434V9.216a.624.624 0 0 0-.634-.614h-3.8a.624.624 0 0 1-.633-.614V3.687c0-.34.284-.615.633-.615.35 0 .634.275.634.615v3.072c0 .339.283.614.633.614h2.533V6.144h-1.9V3.687c0-1.018-.85-1.844-1.9-1.844-1.049 0-1.9.826-1.9 1.844v4.3c0 1.019.851 1.844 1.9 1.844H24.7v2.203l-3.243 3.147a1.806 1.806 0 0 0-.557 1.303v5.635c0 1.018.85 1.844 1.9 1.844 1.05 0 1.9-.826 1.9-1.844v-4.66l1.9-1.844 1.004.975-1.19 1.153a1.805 1.805 0 0 0 0 2.607l3.91 3.793a1.94 1.94 0 0 0 2.686 0l.109-.105a1.805 1.805 0 0 0 0-2.607l-2.457-2.384 1.715-1.663c.357-.345.558-.814.556-1.304V9.83H34.2v1.844c0 1.018.85 1.843 1.9 1.843 1.05 0 1.9-.825 1.9-1.843V7.988c0-1.018-.85-1.844-1.9-1.844z" id="Shape"/><path id="Rectangle-path" d="M28.5 3.072h1.267v1.843H28.5z"/><path d="M8.233 14.746v-1.843H6.967v1.229H5.7v1.229h1.9c.35 0 .633-.275.633-.615z" id="Shape"/></g></g></svg>