<svg xmlns="http://www.w3.org/2000/svg" viewBox="0 0 65.89 74.57"><g id="Layer_2" data-name="Layer 2"><path d="M62.19 11.39L.18 0 0 58.73V70a4.51 4.51 0 0 0 4.54 4.54 4.42 4.42 0 0 0 3.09-1.26l19.05-18.14 26.85-3.62a4.51 4.51 0 0 0 2.18-8l-9.23-7.24 18-17.17a4.51 4.51 0 0 0-2.29-7.72zM4.46 8.8l35.46 27.78-15.19 14.49-20.39 2.75zm.2 61.4c-.07.07-.1.07-.12.07a.33.33 0 0 1-.21-.09V58.15l15.1-2zm48.4-23.32a.18.18 0 0 1 .08.23c0 .13-.09.14-.18.15L32 50.09l11.34-10.83zM61.53 16L43.06 33.59 7.47 5.71l54 9.9a.17.17 0 0 1 .16.15.18.18 0 0 1-.1.24z" fill="#fa2750" id="Layer_1-2" data-name="Layer 1"/></g></svg>