<?xml version="1.0" encoding="UTF-8"?>
<svg width="38px" height="37px" viewBox="0 0 38 37" version="1.1" xmlns="http://www.w3.org/2000/svg" xmlns:xlink="http://www.w3.org/1999/xlink">
    <!-- Generator: Sketch 48.2 (47327) - http://www.bohemiancoding.com/sketch -->
    <title>book</title>
    <desc>Created with Sketch.</desc>
    <defs></defs>
    <g id="Desktop-HD-Copy" stroke="none" stroke-width="1" fill="none" fill-rule="evenodd" transform="translate(-204.000000, -734.000000)">
        <g id="book" transform="translate(204.000000, 734.000000)" fill="#000000" fill-rule="nonzero">
            <path d="M37.3666667,6.14427861 L35.4666667,6.14427861 L35.4666667,2.45771144 C35.4666667,1.1003635 34.3324458,0 32.9333333,0 L31.0333333,0 C30.683575,0 30.4,0.275110075 30.4,0.614427861 L30.4,3.68656716 L21.5333333,3.68656716 C21.3653417,3.68656716 21.2043167,3.7513893 21.0855667,3.86659453 L19,5.88990547 L16.9144333,3.86659453 C16.7956833,3.7513893 16.6346583,3.68656716 16.4666667,3.68656716 L3.16666667,3.68656716 C2.81690833,3.68656716 2.53333333,3.96167724 2.53333333,4.30099502 L2.53333333,6.14427861 L0.633333333,6.14427861 C0.283575,6.14427861 0,6.41938868 0,6.75870647 L0,36.2512438 C0,36.5905616 0.283575,36.8656716 0.633333333,36.8656716 L37.3666667,36.8656716 C37.716425,36.8656716 38,36.5905616 38,36.2512438 L38,6.75870647 C38,6.41938868 37.716425,6.14427861 37.3666667,6.14427861 Z M1.26666667,35.6368159 L1.26666667,7.37313433 L2.53333333,7.37313433 L2.53333333,33.7935323 C2.53333333,34.1328501 2.81690833,34.4079602 3.16666667,34.4079602 L16.2044667,34.4079602 L17.4711333,35.6368159 L1.26666667,35.6368159 Z M18.3666667,34.7680149 L16.9144333,33.3591318 C16.7956833,33.2439266 16.6346583,33.1791045 16.4666667,33.1791045 L3.8,33.1791045 L3.8,4.91542289 L16.2044667,4.91542289 L18.3666667,7.0130796 L18.3666667,34.7680149 Z M31.6666667,1.22885572 L32.9333333,1.22885572 C33.6329292,1.22885572 34.2,1.77899907 34.2,2.45771144 L34.2,29.8224851 C33.8153292,29.6057456 33.37825,29.4918461 32.9333333,29.4925373 L31.6666667,29.4925373 L31.6666667,1.22885572 Z M19.6333333,7.0130796 L21.7955333,4.91542289 L30.4,4.91542289 L30.4,6.75870647 L26.6,6.75870647 L26.6,7.98756219 L30.4,7.98756219 L30.4,9.21641791 L21.5333333,9.21641791 L21.5333333,10.4452736 L30.4,10.4452736 L30.4,11.6741294 L21.5333333,11.6741294 L21.5333333,12.9029851 L30.4,12.9029851 L30.4,14.1318408 L21.5333333,14.1318408 L21.5333333,15.3606965 L30.4,15.3606965 L30.4,20.2761194 L26.6,20.2761194 L26.6,21.5049751 L30.4,21.5049751 L30.4,22.7338308 L21.5333333,22.7338308 L21.5333333,23.9626866 L30.4,23.9626866 L30.4,25.1915423 L21.5333333,25.1915423 L21.5333333,26.420398 L30.4,26.420398 L30.4,27.6492537 L21.5333333,27.6492537 L21.5333333,28.8781095 L30.4,28.8781095 L30.4,30.1069652 C30.4,30.446283 30.683575,30.721393 31.0333333,30.721393 L32.9333333,30.721393 C33.6329292,30.721393 34.2,31.2715364 34.2,31.9502488 C34.2,32.6289611 33.6329292,33.1791045 32.9333333,33.1791045 L21.5333333,33.1791045 C21.3653417,33.1791045 21.2043167,33.2439266 21.0855667,33.3591318 L19.6333333,34.7680149 L19.6333333,7.0130796 Z M36.7333333,35.6368159 L20.5288667,35.6368159 L21.7955333,34.4079602 L32.9333333,34.4079602 C34.3324458,34.4079602 35.4666667,33.3075967 35.4666667,31.9502488 L35.4666667,7.37313433 L36.7333333,7.37313433 L36.7333333,35.6368159 Z" id="Shape"></path>
            <rect id="Rectangle-path" x="8.23333333" y="6.75870647" width="1.26666667" height="1.22885572"></rect>
            <rect id="Rectangle-path" x="10.7666667" y="6.75870647" width="5.7" height="1.22885572"></rect>
            <rect id="Rectangle-path" x="5.7" y="9.21641791" width="10.7666667" height="1.22885572"></rect>
            <rect id="Rectangle-path" x="5.7" y="11.6741294" width="10.7666667" height="1.22885572"></rect>
            <rect id="Rectangle-path" x="5.7" y="14.1318408" width="10.7666667" height="1.22885572"></rect>
            <rect id="Rectangle-path" x="5.7" y="16.5895522" width="6.96666667" height="1.22885572"></rect>
            <rect id="Rectangle-path" x="8.23333333" y="20.2761194" width="1.26666667" height="1.22885572"></rect>
            <rect id="Rectangle-path" x="10.7666667" y="20.2761194" width="5.7" height="1.22885572"></rect>
            <rect id="Rectangle-path" x="5.7" y="22.7338308" width="10.7666667" height="1.22885572"></rect>
            <rect id="Rectangle-path" x="5.7" y="25.1915423" width="10.7666667" height="1.22885572"></rect>
            <rect id="Rectangle-path" x="5.7" y="27.6492537" width="10.7666667" height="1.22885572"></rect>
            <rect id="Rectangle-path" x="5.7" y="30.1069652" width="6.96666667" height="1.22885572"></rect>
            <rect id="Rectangle-path" x="24.0666667" y="6.75870647" width="1.26666667" height="1.22885572"></rect>
            <rect id="Rectangle-path" x="21.5333333" y="16.5895522" width="6.96666667" height="1.22885572"></rect>
            <rect id="Rectangle-path" x="24.0666667" y="20.2761194" width="1.26666667" height="1.22885572"></rect>
            <rect id="Rectangle-path" x="21.5333333" y="30.1069652" width="6.96666667" height="1.22885572"></rect>
        </g>
    </g>
</svg>