<?xml version="1.0" encoding="UTF-8"?>
<svg width="38px" height="38px" viewBox="0 0 38 38" version="1.1" xmlns="http://www.w3.org/2000/svg" xmlns:xlink="http://www.w3.org/1999/xlink">
    <!-- Generator: Sketch 48.2 (47327) - http://www.bohemiancoding.com/sketch -->
    <title>coding</title>
    <desc>Created with Sketch.</desc>
    <defs></defs>
    <g id="Desktop-HD-Copy" stroke="none" stroke-width="1" fill="none" fill-rule="evenodd" transform="translate(-206.000000, -787.000000)">
        <g id="coding" transform="translate(206.000000, 787.000000)" fill="#000000" fill-rule="nonzero">
            <g id="Group">
                <path d="M37.5844783,4.90471976 C37.5156877,4.73012494 37.3605336,4.60131471 37.1724862,4.56246717 C36.9842885,4.52361964 36.7888063,4.57991935 36.6528775,4.71208858 L33.9695968,7.32115297 C33.8938972,7.39475882 33.7705099,7.39483184 33.6947352,7.32115297 L31.9522174,5.62675806 C31.8764427,5.5530792 31.8764427,5.43317761 31.9522174,5.35949874 L34.635498,2.75043435 C34.7714269,2.61826512 34.8293281,2.42811668 34.7893755,2.24519739 C34.7493478,2.06235112 34.6168735,1.91156137 34.4373874,1.84460049 C32.420083,1.09233121 30.1302451,1.56529259 28.6037866,3.04953112 C27.1847945,4.42927564 26.6633083,6.46095766 27.223996,8.3171686 L25.2368063,10.084074 C24.936336,9.92926808 24.6267036,9.79038086 24.3100119,9.66967603 L24.3909684,8.63795281 C24.433249,8.10051329 24.0527233,7.62791702 23.506004,7.53861152 L22.1057115,7.30998066 C21.5587668,7.22074817 21.0406601,7.54657088 20.9,8.06779958 L20.6298696,9.06870766 C20.332253,9.08053717 20.0351621,9.10675195 19.7405494,9.14720596 L19.4736482,8.59428585 L19.4736482,7.34619941 C19.4736482,7.34590732 19.4736482,7.34568826 19.4736482,7.34539617 L19.4736482,7.33897026 C19.4736482,7.3310109 19.4728972,7.32465801 19.4726719,7.31742887 C19.4722964,7.30822814 19.4722213,7.29895439 19.4713953,7.28975365 C19.4710949,7.28624861 19.4704941,7.28325473 19.4700435,7.27989573 C19.4608063,7.1955557 19.4318182,7.11194588 19.3806008,7.03607636 C19.2086245,6.7811577 18.8565613,6.71032668 18.5944664,6.87740026 C17.9902213,7.2629547 16.5509526,7.49976399 15.7850949,7.49976399 C13.9089012,7.49976399 12.1017233,6.84797253 10.5674545,5.65793832 L8.77679842,3.78120829 C9.11932411,3.28276235 9.50600791,2.85310282 9.9305415,2.50186857 C11.7088814,1.03048185 13.7991818,1.10416072 13.8185573,1.10532907 C15.1397708,1.17163275 16.3924941,1.75354246 17.5421067,2.83462834 C18.5663794,3.79800328 19.3311858,5.17051865 19.8152727,6.91398412 C19.8969802,7.20833449 20.2086403,7.38271024 20.5113636,7.3030436 C20.814087,7.223523 20.9932727,6.92055607 20.9114901,6.62620571 C20.3732569,4.6875533 19.5051897,3.14489743 18.3314704,2.04095577 C16.9790909,0.768918221 15.480419,0.0830986643 13.8772095,0.00255575857 C13.7743992,-0.0024827369 11.3277549,-0.104055885 9.19479842,1.66087796 C8.58229249,2.16764837 8.04022925,2.80403226 7.58302767,3.55228535 C7.58280237,3.55265045 7.58257708,3.55286952 7.58235178,3.55323463 C7.58160079,3.554476 7.5808498,3.55571736 7.58009881,3.55695873 C7.57859684,3.55944147 7.57694466,3.56192421 7.57536759,3.56440694 C7.57499209,3.56499112 7.5748419,3.56557529 7.5744664,3.56615946 C7.14948221,4.23131389 6.85096443,4.95605399 6.6877747,5.72051789 C6.5424585,6.40166406 6.50836364,7.09872896 6.5865415,7.79214277 C6.60441502,7.95030771 6.69160474,8.09335717 6.82573123,8.18456124 C6.92193281,8.24998866 7.03563241,8.28408978 7.15090909,8.28408978 C7.19634387,8.28408978 7.24200395,8.2787592 7.28683794,8.26802501 C7.4289249,8.23392389 7.56950988,8.19566053 7.70851779,8.15338099 L7.70851779,11.5640043 C7.70851779,13.4870301 8.69058498,15.1902606 10.1916601,16.2276795 L10.1916601,17.1383328 C10.1916601,17.58727 9.94435968,17.9988202 9.53754941,18.2875479 C9.51817391,18.2987932 9.49924901,18.3111339 9.4811502,18.3247159 C9.24466403,18.4806902 8.96018972,18.5976709 8.64079447,18.6583519 L6.01962055,19.1573821 C3.58994862,19.6199744 1.89294071,21.3903848 1.89294071,23.4626669 L1.89294071,31.1912078 C1.89294071,32.5538652 2.42952174,33.8437201 3.40385375,34.8230137 L4.85618972,36.282863 L0.620616601,36.282863 C0.307079051,36.282863 0.0528695652,36.5300414 0.0528695652,36.8349069 C0.0528695652,37.1397724 0.307079051,37.3869507 0.620616601,37.3869507 L6.19535178,37.3869507 L6.58871937,37.3869507 L20.7964387,37.3869507 L21.5683794,37.3869507 L26.4977154,37.3869507 C26.811253,37.3869507 27.0654625,37.1397724 27.0654625,36.8349069 C27.0654625,36.5300414 26.811253,36.282863 26.4977154,36.282863 L22.7643281,36.282863 L24.1612411,34.6181879 C25.0193953,33.5954464 25.4920672,32.3052995 25.4920672,30.9854327 L25.4920672,25.4632417 C25.8216008,25.2795922 26.1406206,25.0763729 26.4440198,24.8541679 L27.3076561,25.4616352 C27.4970553,25.5948998 27.715668,25.659743 27.9324783,25.659743 C28.2296443,25.659743 28.523581,25.5377968 28.7340079,25.30274 L29.6665099,24.261597 C30.0307391,23.8551584 30.0159447,23.2550663 29.632415,22.8659338 L28.8965217,22.1191411 C29.09283,21.7765965 29.2654071,21.4210539 29.412751,21.0557265 L30.4738972,21.1345169 C31.0273004,21.1748979 31.512664,20.8055542 31.6044348,20.2740295 L31.8395692,18.9123943 C31.9313399,18.3808696 31.596249,17.876874 31.0601937,17.7401044 L30.0308142,17.4774454 C30.0186482,17.1879875 29.9916877,16.8991868 29.9501581,16.6127228 L30.9129249,16.1732053 C31.4146601,15.9442094 31.6503202,15.3895367 31.4609209,14.8829124 L30.9758577,13.5853902 C30.8064348,13.1322908 30.3510356,12.8628408 29.8731818,12.9094286 L30.8209289,11.8877824 C32.7605059,12.4856838 34.8909842,11.990962 36.3454229,10.5767513 C37.8717312,9.09273179 38.3581462,6.86622795 37.5844783,4.90471976 Z M19.473498,11.5638582 L19.473498,10.3067171 C19.487917,10.3051837 19.5021107,10.3050376 19.5165296,10.3023358 C20.0248735,10.2073346 20.5464348,10.161404 21.0647668,10.1657123 C21.066419,10.1657123 21.0680711,10.1657123 21.0697984,10.1657123 C21.3276126,10.1657123 21.5533597,9.99666709 21.6189209,9.753797 L21.9817984,8.40917591 L23.2538221,8.61692257 L23.145004,10.003093 C23.125253,10.2550178 23.2840119,10.4879569 23.530336,10.5684268 C23.8053478,10.6582434 24.0754032,10.7636137 24.3387747,10.882639 L23.2660632,11.8365212 C22.9074664,11.7134066 22.5366285,11.6199389 22.1592569,11.5583816 C21.2604743,11.4116081 20.3454704,11.4482649 19.4710949,11.6619263 C19.4714704,11.6290666 19.473498,11.596718 19.473498,11.5638582 Z M19.3201462,12.8561228 C20.1686877,12.5744782 21.0791107,12.5015295 21.9709091,12.6471348 C22.076498,12.6643679 22.1814862,12.6847409 22.2856482,12.7078888 L17.1983794,17.2316545 C17.1960514,17.2006933 17.1931976,17.1697321 17.1931976,17.1383328 L17.1931976,16.081052 C18.2435296,15.2873794 19.0101383,14.1562737 19.3201462,12.8561228 Z M8.1447668,6.80240701 C8.07214625,6.81920199 8.005083,6.84928692 7.94628063,6.8903251 C7.85894071,6.92712802 7.7708498,6.96254354 7.68148221,6.99518422 C7.68621344,6.64256256 7.72556522,6.29125529 7.79938735,5.9449135 C7.87831621,5.57483965 7.99704743,5.2165223 8.1506996,4.87178698 C8.51635573,5.30750731 8.90649407,5.70890745 9.31803557,6.07357768 C8.90093676,6.39991154 8.54504348,6.60094021 8.38275494,6.68579139 C8.30472727,6.72661051 8.22504743,6.76501991 8.1447668,6.80240701 Z M8.84393676,11.5639313 L8.84393676,7.69677646 C8.86939526,7.68392465 8.89515415,7.67151096 8.92038735,7.65836706 C9.13749802,7.5449644 9.64464032,7.25762412 10.2131383,6.78575806 C11.8686166,7.96315953 13.7891186,8.60392471 15.7849447,8.60392471 C16.3974506,8.60392471 17.4861581,8.47905765 18.3340237,8.21698286 L18.3380791,11.5640043 C18.3380791,14.1091747 16.2085771,16.1797773 13.591083,16.1797773 C10.9735889,16.1797773 8.84393676,14.1091017 8.84393676,11.5639313 Z M24.3566482,30.9855788 L24.356498,30.9855788 C24.356498,32.0518412 23.9747708,33.0940796 23.2813834,33.9203198 L22.3893597,34.9833693 L22.3893597,26.2145617 C22.3893597,25.3406383 21.7370514,24.6125392 20.881,24.4652545 C20.917498,24.160389 21.0735534,23.8824685 21.324083,23.6869165 L21.9236719,23.2189206 C22.1681937,23.0280419 22.2073202,22.6806048 22.0110119,22.4429192 C21.8147036,22.2051607 21.4573834,22.1670433 21.2129368,22.357995 L20.6133478,22.8259909 C20.099747,23.2268799 19.7898893,23.8063799 19.7435534,24.4375793 L10.758581,24.4375793 C10.4450435,24.4375793 10.190834,24.6847576 10.190834,24.9896231 C10.190834,25.2944886 10.4450435,25.541667 10.758581,25.541667 L20.56183,25.541667 C20.9434822,25.541667 21.2540158,25.8436116 21.2540158,26.2146347 L21.2540158,35.838015 C21.2540158,36.0833678 21.0486957,36.2829361 20.7964387,36.2829361 L6.58849407,36.2829361 C6.51842688,36.2829361 6.45218972,36.2670173 6.39271146,36.2394882 L6.1684664,36.0140702 C6.14443478,35.9599612 6.1308419,35.9005215 6.1308419,35.837869 L6.1308419,26.2146347 C6.1308419,25.8435386 6.44137549,25.541667 6.82295257,25.541667 L8.51425296,25.541667 C8.82779051,25.541667 9.082,25.2944886 9.082,24.9896231 C9.082,24.6847576 8.82779051,24.4375793 8.51425296,24.4375793 L7.38784585,24.4375793 C7.34150988,23.8063069 7.03157708,23.2268069 6.51805138,22.8259909 L5.91846245,22.357995 C5.67386561,22.1670433 5.31654545,22.2051607 5.12038735,22.4429192 C4.92407905,22.6806778 4.96320553,23.0281879 5.20772727,23.2189206 L5.80731621,23.6869895 C6.07421739,23.8952473 6.23312648,24.197411 6.25505534,24.5257894 C5.52456917,24.7585825 4.99534783,25.4274611 4.99534783,26.2146347 L4.99534783,34.8349893 L4.21987747,34.0554829 C3.4515415,33.2831327 3.02828458,32.2659408 3.02828458,31.1912808 L3.02828458,23.4628129 C3.02828458,21.9256337 4.34807115,20.6008015 6.23763241,20.2409507 L8.85880632,19.7419206 C9.19059289,19.6787568 9.49924901,19.5738247 9.7784664,19.4350835 C10.1178379,19.6875924 10.481917,19.9067305 10.8652964,20.0889195 C10.945502,20.1270369 11.0304387,20.1450732 11.1141739,20.1450732 C11.3242253,20.1450732 11.5262411,20.0312324 11.6246957,19.8353153 C11.7624269,19.561411 11.6455731,19.2308419 11.3638775,19.0969931 C11.1373043,18.9892862 10.9192174,18.8654414 10.7105929,18.7275035 C11.1012569,18.2815601 11.3270791,17.7306116 11.3270791,17.1383328 L11.3270791,16.8427411 C12.0243715,17.1265033 12.7891028,17.283865 13.5910079,17.283865 C14.4716166,17.283865 15.3070158,17.0934245 16.0577787,16.7547499 L16.0577787,17.1384058 C16.0577787,17.7303925 16.2833004,18.281049 16.673664,18.7269923 C15.7983874,19.3048128 14.7611976,19.61866 13.6923913,19.61866 C13.4753557,19.61866 13.2568933,19.6058812 13.0429368,19.5805427 C12.7316522,19.5434476 12.4486047,19.7591537 12.4107549,20.0618285 C12.37283,20.3645033 12.5944466,20.639722 12.9057312,20.6765249 C13.1648972,20.7071941 13.4295455,20.7227477 13.6923162,20.7227477 C15.1113083,20.7227477 16.484415,20.2670194 17.604664,19.4344263 C17.8844071,19.5735326 18.1934387,19.6788298 18.5259012,19.7420666 L21.1470751,20.2410967 C21.5191146,20.3119277 21.8686996,20.42073 22.1908735,20.5606396 C22.215581,20.5736374 22.2408142,20.5851018 22.2667984,20.5943025 C23.5375455,21.1738025 24.3564229,22.2523327 24.3564229,23.462886 L24.3564229,30.9855788 L24.3566482,30.9855788 Z M23.3664704,19.9239636 L26.3687708,16.687424 C26.5239249,17.3533816 26.5449526,18.0459192 26.4269723,18.7288179 C26.2429051,19.7945692 25.7305059,20.7696276 24.9645731,21.5346757 C24.5959881,20.899095 24.0484427,20.346467 23.3664704,19.9239636 Z M29.9307826,14.0222059 L30.3714625,15.2009217 L29.0782609,15.7911559 C28.8432016,15.8984978 28.7129051,16.1471366 28.7620198,16.3951182 C28.8597233,16.8893289 28.9069605,17.3958072 28.9024545,17.900533 C28.9002016,18.153261 29.0746561,18.3751739 29.326087,18.4393599 L30.7089565,18.7922007 L30.4953004,20.0291148 L29.0696996,19.9233064 C28.8107589,19.9040287 28.5711186,20.0584695 28.4882846,20.2979806 C28.2934783,20.8617079 28.0307826,21.4030176 27.7071818,21.9070132 C27.5696008,22.1211857 27.5991897,22.3989602 27.7789012,22.5812223 L28.7674269,23.584321 L27.9203123,24.5300977 L26.761087,23.7147377 C26.5508103,23.5667958 26.264083,23.5763616 26.0646957,23.7380316 C25.881004,23.8869228 25.6894269,24.0277816 25.4918419,24.160389 L25.4918419,23.4628129 C25.4918419,23.1864259 25.460751,22.9155885 25.4026996,22.6523454 C26.5378933,21.6845161 27.2951897,20.3675702 27.5466206,18.9117371 C27.7321897,17.8373693 27.6326838,16.7432855 27.2613953,15.7250713 L28.5027036,14.3868761 C28.5177233,14.3841743 28.5325929,14.3813995 28.5475375,14.3776024 L29.9307826,14.0222059 Z M35.5423913,9.79629561 C34.3142253,10.990419 32.477834,11.3573529 30.8641107,10.7312651 C30.6433202,10.6456107 30.3912134,10.7027867 30.2320791,10.8742416 L26.2079842,15.2123131 C26.1914625,15.2281588 26.175917,15.2448078 26.1615731,15.26226 L22.3088538,19.4155867 C22.0091344,19.3075146 21.6942451,19.2201807 21.3653123,19.1575281 L18.7441383,18.658498 C18.4248182,18.5976709 18.1402688,18.4808363 17.9038577,18.324862 C17.8856838,18.3112069 17.8667589,18.2987932 17.8473083,18.2875479 C17.8186957,18.2672479 17.7916601,18.2457795 17.7646996,18.2243111 L28.2618617,8.89038873 C28.4326364,8.73850365 28.4915138,8.50096415 28.4107075,8.29015058 C27.8181028,6.74530406 28.2090672,4.99460944 29.4065929,3.83020583 C30.3954941,2.86858342 31.7886522,2.44272102 33.1381028,2.64484501 L31.149336,4.57867799 C30.8981304,4.82293548 30.7597984,5.14758984 30.7597984,5.49298236 C30.7597984,5.8384479 30.8981304,6.16310226 31.149336,6.40728673 L32.8918538,8.10168164 C33.4104111,8.6058963 34.2540711,8.6058963 34.7725534,8.10168164 L36.7613202,6.16792169 C36.9693439,7.47990209 36.5312174,8.83474622 35.5423913,9.79629561 Z" id="Shape"></path>
                <path d="M13.5568379,13.8130718 C14.1917233,13.8130718 14.7886087,13.5726845 15.2374743,13.1360879 C15.459166,12.9205279 15.459166,12.5709732 15.2374743,12.3554132 C15.0158577,12.1397802 14.6562846,12.1398532 14.4345929,12.3554132 C14.2001344,12.5833868 13.8883241,12.7089111 13.5567628,12.7089111 C13.2252016,12.7089111 12.9134664,12.5833868 12.6789328,12.3554132 C12.4573162,12.1398532 12.0978182,12.1398532 11.8760514,12.3554132 C11.6543597,12.5709001 11.6543597,12.9205279 11.8760514,13.1360879 C12.3249921,13.5726845 12.9219526,13.8130718 13.5568379,13.8130718 Z" id="Shape"></path>
            </g>
            <circle id="Oval" cx="11.3387097" cy="8.88709677" r="1"></circle>
            <circle id="Oval" cx="15.6290323" cy="8.88709677" r="1"></circle>
            <path d="M13.7903226,28.8064516 C12.6074527,28.8064516 11.6451613,29.6312728 11.6451613,30.6451613 C11.6451613,31.6590498 12.6074527,32.483871 13.7903226,32.483871 C14.9731925,32.483871 15.9354839,31.6590498 15.9354839,30.6451613 C15.9354839,29.6312728 14.9731925,28.8064516 13.7903226,28.8064516 Z M13.7903226,31.4118515 C13.2970604,31.4118515 12.8956852,31.0678157 12.8956852,30.6450195 C12.8956852,30.2222233 13.2970604,29.8781875 13.7903226,29.8781875 C14.2835848,29.8781875 14.68496,30.2222233 14.68496,30.6450195 C14.68496,31.0678866 14.2835848,31.4118515 13.7903226,31.4118515 Z" id="Shape"></path>
        </g>
    </g>
</svg>