<?xml version="1.0" encoding="UTF-8"?>
<svg width="104px" height="21px" viewBox="0 0 104 21" version="1.1" xmlns="http://www.w3.org/2000/svg" xmlns:xlink="http://www.w3.org/1999/xlink">
    <!-- Generator: Sketch 48.2 (47327) - http://www.bohemiancoding.com/sketch -->
    <title>&lt;fenna/&gt;</title>
    <desc>Created with Sketch.</desc>
    <defs></defs>
    <g id="Desktop-HD" stroke="none" stroke-width="1" fill="none" fill-rule="evenodd" transform="translate(-124.000000, -92.000000)">
        <path d="M137.3,98.35 L127.075,103.125 L137.3,107.9 L136.875,108.8 L124.7,103.125 L136.875,97.45 L137.3,98.35 Z M148.925,93.275 C149.175001,93.475001 149.379166,93.7374984 149.5375,94.0625 C149.695834,94.3875016 149.775,94.749998 149.775,95.15 C149.775,95.616669 149.608335,96.0208316 149.275,96.3625 C148.941665,96.7041684 148.516669,96.875 148,96.875 C147.433331,96.875 146.975002,96.7166682 146.625,96.4 C146.274998,96.0833317 146.1,95.6500027 146.1,95.1 C146.1,94.6666645 146.224999,94.283335 146.475,93.95 C146.725001,93.616665 147.091664,93.383334 147.575,93.25 C147.525,93.1499995 147.420834,93.066667 147.2625,93 C147.104166,92.933333 146.908334,92.9 146.675,92.9 C146.041663,92.9 145.591668,93.1166645 145.325,93.55 C145.141666,93.8000013 145.016667,94.1666642 144.95,94.65 C144.883333,95.1333358 144.85,95.8583285 144.85,96.825 L144.85,99.1 L147.525,99.1 L147.525,99.6 L144.85,99.6 L144.85,109.425 C144.85,110.191671 145.045831,110.724998 145.4375,111.025 C145.829169,111.325001 146.416663,111.475 147.2,111.475 L147.2,112 L146.5,111.975 C144.649991,111.925 143.450003,111.9 142.9,111.9 C142.399998,111.9 141.316675,111.933333 139.65,112 L139.65,111.475 C140.250003,111.475 140.666665,111.345835 140.9,111.0875 C141.133334,110.829165 141.25,110.358337 141.25,109.675 L141.25,99.6 L139.55,99.6 L139.55,99.1 L141.25,99.1 C141.25,97.6499927 141.366666,96.5291706 141.6,95.7375 C141.833335,94.9458294 142.241664,94.2666695 142.825,93.7 C143.191668,93.3333315 143.68333,93.0333345 144.3,92.8 C144.91667,92.5666655 145.566663,92.45 146.25,92.45 C147.283339,92.45 148.174996,92.7249973 148.925,93.275 Z M159.1,108.3 L159.55,108.45 C159.216665,109.533339 158.620838,110.454163 157.7625,111.2125 C156.904162,111.970837 155.83334,112.35 154.55,112.35 C152.783324,112.35 151.379172,111.787506 150.3375,110.6625 C149.295828,109.537494 148.775,107.875011 148.775,105.675 C148.775,103.424989 149.333328,101.704173 150.45,100.5125 C151.566672,99.3208274 153.049991,98.725 154.9,98.725 C158.033349,98.725 159.6,100.574982 159.6,104.275 L152.575,104.275 C152.558333,104.525001 152.55,104.916664 152.55,105.45 C152.55,106.550005 152.704165,107.466663 153.0125,108.2 C153.320835,108.933337 153.720831,109.466665 154.2125,109.8 C154.704169,110.133335 155.23333,110.3 155.8,110.3 C157.166674,110.3 158.266662,109.63334 159.1,108.3 Z M153.2625,100.3625 C152.870831,101.10417 152.625,102.249992 152.525,103.8 L156.45,103.8 C156.483334,102.483327 156.354168,101.395838 156.0625,100.5375 C155.770832,99.6791624 155.333336,99.25 154.75,99.25 C154.149997,99.25 153.654169,99.6208296 153.2625,100.3625 Z M173.1,99.7 C173.383335,100.016668 173.583333,100.424997 173.7,100.925 C173.816667,101.425003 173.875,102.099996 173.875,102.95 L173.875,109.675 C173.875,110.358337 173.995832,110.829165 174.2375,111.0875 C174.479168,111.345835 174.891664,111.475 175.475,111.475 L175.475,112 C173.808325,111.933333 172.708336,111.9 172.175,111.9 C171.674998,111.9 170.591675,111.933333 168.925,112 L168.925,111.475 C169.425003,111.475 169.774999,111.345835 169.975,111.0875 C170.175001,110.829165 170.275,110.358337 170.275,109.675 L170.275,101.9 C170.275,101.216663 170.162501,100.700002 169.9375,100.35 C169.712499,99.9999983 169.308336,99.825 168.725,99.825 C168.041663,99.825 167.458336,100.104164 166.975,100.6625 C166.491664,101.220836 166.25,101.908329 166.25,102.725 L166.25,109.675 C166.25,110.358337 166.349999,110.829165 166.55,111.0875 C166.750001,111.345835 167.099998,111.475 167.6,111.475 L167.6,112 C166.066659,111.933333 165.033336,111.9 164.5,111.9 C163.999998,111.9 162.850009,111.933333 161.05,112 L161.05,111.475 C161.650003,111.475 162.066665,111.345835 162.3,111.0875 C162.533335,110.829165 162.65,110.358337 162.65,109.675 L162.65,101.8 C162.65,101.033329 162.533335,100.475002 162.3,100.125 C162.066665,99.7749983 161.650003,99.6 161.05,99.6 L161.05,99.075 C161.583336,99.1250002 162.099998,99.15 162.6,99.15 C164.083341,99.15 165.299995,99.0333345 166.25,98.8 L166.25,101.05 C167.000004,99.4999922 168.366657,98.725 170.35,98.725 C171.616673,98.725 172.533331,99.0499967 173.1,99.7 Z M188.45,99.7 C188.733335,100.016668 188.933333,100.424997 189.05,100.925 C189.166667,101.425003 189.225,102.099996 189.225,102.95 L189.225,109.675 C189.225,110.358337 189.345832,110.829165 189.5875,111.0875 C189.829168,111.345835 190.241664,111.475 190.825,111.475 L190.825,112 C189.158325,111.933333 188.058336,111.9 187.525,111.9 C187.024998,111.9 185.941675,111.933333 184.275,112 L184.275,111.475 C184.775002,111.475 185.124999,111.345835 185.325,111.0875 C185.525001,110.829165 185.625,110.358337 185.625,109.675 L185.625,101.9 C185.625,101.216663 185.512501,100.700002 185.2875,100.35 C185.062499,99.9999983 184.658336,99.825 184.075,99.825 C183.391663,99.825 182.808336,100.104164 182.325,100.6625 C181.841664,101.220836 181.6,101.908329 181.6,102.725 L181.6,109.675 C181.6,110.358337 181.699999,110.829165 181.9,111.0875 C182.100001,111.345835 182.449997,111.475 182.95,111.475 L182.95,112 C181.416659,111.933333 180.383336,111.9 179.85,111.9 C179.349998,111.9 178.200009,111.933333 176.4,112 L176.4,111.475 C177.000003,111.475 177.416666,111.345835 177.65,111.0875 C177.883335,110.829165 178,110.358337 178,109.675 L178,101.8 C178,101.033329 177.883335,100.475002 177.65,100.125 C177.416666,99.7749983 177.000003,99.6 176.4,99.6 L176.4,99.075 C176.933336,99.1250002 177.449997,99.15 177.95,99.15 C179.433341,99.15 180.649995,99.0333345 181.6,98.8 L181.6,101.05 C182.350004,99.4999922 183.716657,98.725 185.7,98.725 C186.966673,98.725 187.88333,99.0499967 188.45,99.7 Z M192.6625,111.35 C192.137497,110.799997 191.875,110.075005 191.875,109.175 C191.875,108.424996 192.070831,107.804169 192.4625,107.3125 C192.854169,106.820831 193.329164,106.441668 193.8875,106.175 C194.445836,105.908332 195.158329,105.625001 196.025,105.325 C196.941671,105.008332 197.612498,104.720835 198.0375,104.4625 C198.462502,104.204165 198.675,103.850002 198.675,103.4 L198.675,101.45 C198.675,100.749996 198.512502,100.204169 198.1875,99.8125 C197.862498,99.4208314 197.358337,99.225 196.675,99.225 C195.874996,99.225 195.266669,99.424998 194.85,99.825 C195.316669,99.9916675 195.679165,100.241665 195.9375,100.575 C196.195835,100.908335 196.325,101.299998 196.325,101.75 C196.325,102.31667 196.133335,102.766665 195.75,103.1 C195.366665,103.433335 194.900003,103.6 194.35,103.6 C193.766664,103.6 193.316668,103.416669 193,103.05 C192.683332,102.683332 192.525,102.225003 192.525,101.675 C192.525,101.208331 192.637499,100.812502 192.8625,100.4875 C193.087501,100.162498 193.433331,99.8583347 193.9,99.575 C194.350002,99.308332 194.904163,99.1000007 195.5625,98.95 C196.220837,98.7999992 196.941663,98.725 197.725,98.725 C198.541671,98.725 199.249997,98.8083325 199.85,98.975 C200.450003,99.1416675 200.949998,99.424998 201.35,99.825 C201.716669,100.191668 201.962499,100.641664 202.0875,101.175 C202.212501,101.708336 202.275,102.433329 202.275,103.35 L202.275,110.15 C202.275,110.550002 202.3125,110.833332 202.3875,111 C202.4625,111.166668 202.608332,111.25 202.825,111.25 C203.075001,111.25 203.374998,111.108335 203.725,110.825 L203.975,111.25 C203.224996,111.86667 202.308339,112.175 201.225,112.175 C200.308329,112.175 199.666669,111.991669 199.3,111.625 C198.933332,111.258331 198.741667,110.76667 198.725,110.15 C197.891662,111.500007 196.666675,112.175 195.05,112.175 C193.983328,112.175 193.187503,111.900003 192.6625,111.35 Z M198.675,109.55 L198.675,104.425 C198.474999,104.758335 198.050003,105.124998 197.4,105.525 C196.749997,105.941669 196.258335,106.358331 195.925,106.775 C195.591665,107.191669 195.425,107.791663 195.425,108.575 C195.425,109.258337 195.566665,109.762498 195.85,110.0875 C196.133335,110.412502 196.508331,110.575 196.975,110.575 C197.625003,110.575 198.191664,110.233337 198.675,109.55 Z M205.725,112.35 L204.9,112.35 L211.7,93.95 L212.525,93.95 L205.725,112.35 Z M215.05,98.35 L215.475,97.45 L227.65,103.125 L215.475,108.8 L215.05,107.9 L225.275,103.125 L215.05,98.35 Z" id="&lt;fenna/&gt;" fill="#4A4A4A"></path>
    </g>
</svg>