<?xml version="1.0" encoding="UTF-8"?>
<svg width="38px" height="28px" viewBox="0 0 38 28" version="1.1" xmlns="http://www.w3.org/2000/svg" xmlns:xlink="http://www.w3.org/1999/xlink">
    <!-- Generator: Sketch 48.2 (47327) - http://www.bohemiancoding.com/sketch -->
    <title>mail</title>
    <desc>Created with Sketch.</desc>
    <defs></defs>
    <g id="Desktop-HD-Copy" stroke="none" stroke-width="1" fill="none" fill-rule="evenodd" transform="translate(-701.000000, -780.000000)">
        <g id="mail" transform="translate(701.000000, 780.000000)" fill="#FFFFFF" fill-rule="nonzero">
            <path d="M37.4356406,0 L31.5290898,0 C31.2174453,0 30.9647305,0.283172699 30.9647305,0.632377445 C30.9647305,0.981582191 31.2174453,1.26475489 31.5290898,1.26475489 L35.974125,1.26475489 L19,18.5276445 L2.025875,1.26475489 L28.8953633,1.26475489 C29.2070078,1.26475489 29.4597227,0.981582191 29.4597227,0.632377445 C29.4597227,0.283172699 29.2070078,0 28.8953633,0 L0.564359375,0 C0.252714844,0 0,0.283172699 0,0.632377445 L0,27.3676226 C0,27.7168273 0.252714844,28 0.564359375,28 L37.4356406,28 C37.7472852,28 38,27.7168273 38,27.3676226 L38,0.632377445 C38,0.283089535 37.7472852,0 37.4356406,0 Z M2.03025391,26.7352451 L5.98373828,22.7149413 C6.21448437,22.4801699 6.23185156,22.0803184 6.02233203,21.821679 C5.8128125,21.5631228 5.45596875,21.5436625 5.22514844,21.7784338 L1.12864453,25.944108 L1.12864453,2.06029969 L12.8713125,14.0027028 L7.08417969,19.8878715 C6.85343359,20.1226428 6.83606641,20.5224943 7.04558594,20.7811337 C7.25510547,21.0397731 7.61194922,21.0591502 7.84276953,20.8243789 L13.7110977,14.8567949 L18.6205937,19.8498656 C18.7282852,19.9593923 18.8641055,20.0140309 19,20.0140309 C19.1358945,20.0140309 19.2717148,19.9593091 19.379332,19.8498656 L24.2889023,14.8567118 L35.9698203,26.7352451 L2.03025391,26.7352451 Z M36.8712812,25.944108 L25.1286133,14.0027028 L36.8712812,2.06029969 L36.8712812,25.944108 Z" id="Shape"></path>
        </g>
    </g>
</svg>