<?xml version="1.0" encoding="UTF-8"?>
<svg width="34px" height="38px" viewBox="0 0 34 38" version="1.1" xmlns="http://www.w3.org/2000/svg" xmlns:xlink="http://www.w3.org/1999/xlink">
    <!-- Generator: Sketch 48.2 (47327) - http://www.bohemiancoding.com/sketch -->
    <title>phone</title>
    <desc>Created with Sketch.</desc>
    <defs></defs>
    <g id="Desktop-HD-Copy" stroke="none" stroke-width="1" fill="none" fill-rule="evenodd" transform="translate(-703.000000, -726.000000)">
        <g id="phone" transform="translate(703.000000, 726.000000)" fill="#FFFFFF" fill-rule="nonzero">
            <path d="M33.9041552,31.2095474 C33.7962931,30.2983664 33.3256422,29.5127328 32.6130345,29.054194 L24.2430259,23.6681034 C23.2178966,23.0084267 21.9173966,23.2004741 21.0806595,24.135569 L19.4320259,25.9781595 C18.9933233,26.468556 18.2992543,26.5119612 17.8179052,26.0789741 C16.5182112,24.9101466 15.2385216,23.6237974 14.0144483,22.2556336 C12.790375,20.8875517 11.639431,19.4573922 10.5935647,18.0047112 C10.2061552,17.4666509 10.2449181,16.6910086 10.6837672,16.2006121 L12.3323276,14.3580216 C13.1689914,13.4230086 13.3410431,11.9696724 12.7506595,10.823694 L7.93152586,1.46897845 C7.52118103,0.672452586 6.81831897,0.146512931 6.00305172,0.0259612069 C5.18771121,-0.0948362069 4.38658621,0.209081897 3.80506897,0.859012931 L1.32094397,3.63546983 C-0.412836207,5.57330603 -0.440681034,9.11795259 1.24253879,13.6166121 C2.86105603,17.9422241 5.88148707,22.7040172 9.74730172,27.0247974 C13.6132629,31.3454957 17.8738147,34.7212716 21.7441724,36.5302026 C23.7254784,37.4562069 25.4997802,37.9189224 26.9978319,37.9188405 C28.5430733,37.9188405 29.7942586,37.4263966 30.6746681,36.4424914 L33.1587931,33.6660345 C33.7402371,33.0161034 34.011944,32.1207284 33.9041552,31.2095474 Z M23.6946293,24.7326767 L32.0646379,30.1187672 C32.4785733,30.3850948 32.7518922,30.8414224 32.8144698,31.3706379 C32.8670819,31.8147629 32.7638362,32.2520905 32.5297931,32.6044914 L21.4061509,25.5091379 L21.8578966,25.0042457 C22.3437888,24.4611897 23.0992629,24.3495647 23.6946293,24.7326767 Z M5.85884483,1.24384483 C6.33242672,1.31386638 6.74064655,1.61934052 6.97893966,2.08197414 L11.7980733,11.4366897 C12.1410043,12.1022629 12.041056,12.9464526 11.5551638,13.4894267 L11.1402026,13.9532069 L4.75684914,1.56201293 C5.01778448,1.34605172 5.32986638,1.22877586 5.65521121,1.22877586 C5.72269828,1.22877586 5.79077155,1.23377155 5.85884483,1.24384483 Z M29.8973578,35.5738147 C28.5199181,37.113306 25.7027543,37.0487716 22.1682198,35.3967543 C18.4267543,33.6480991 14.2917241,30.3663405 10.5246121,26.1561207 C6.7575,21.945819 3.82118966,17.3242328 2.25660345,13.1426767 C0.778409483,9.19223276 0.720741379,6.04363793 2.09818103,4.50406466 L3.94231466,2.44289224 L10.3352672,14.8528405 L9.90653017,15.3320172 C9.07008621,16.2669483 8.99725,17.7469828 9.73718966,18.7749483 C10.8076767,20.2618621 11.9852931,21.7251897 13.2371379,23.1243103 C14.4891293,24.5235129 15.7984224,25.8396724 17.1287457,27.0360991 C18.0483578,27.8630905 19.3725991,27.7817672 20.2092629,26.8467543 L20.6004095,26.4095905 L31.7395129,33.5148534 L29.8973578,35.5738147 Z" id="Shape"></path>
        </g>
    </g>
</svg>