<?xml version="1.0" encoding="UTF-8"?>
<svg width="512px" height="302px" viewBox="0 0 512 302" version="1.1" xmlns="http://www.w3.org/2000/svg" xmlns:xlink="http://www.w3.org/1999/xlink">
    <!-- Generator: Sketch 49.3 (51167) - http://www.bohemiancoding.com/sketch -->
    <title>pointing-right</title>
    <desc>Created with Sketch.</desc>
    <defs></defs>
    <g id="Page-1" stroke="none" stroke-width="1" fill="none" fill-rule="evenodd">
        <g id="pointing-right" transform="translate(256.000000, 151.000000) scale(-1, 1) translate(-256.000000, -151.000000) " fill="#000000" fill-rule="nonzero">
            <path d="M470.857,27.571 L214.857,27.571 C195.657,2.885 175.543,0.142 147.2,0.142 L146.286,0.142 C107.886,0.142 78.629,26.656 69.486,36.713 L36.571,36.713 C16.457,36.714 0,53.171 0,73.286 L0,238.772 C0,258.886 16.457,274.429 36.571,274.429 L70.4,274.429 C106.057,300.943 118.857,301.858 182.857,301.858 C216.686,301.858 255.086,292.715 266.057,290.887 C287.086,296.373 309.028,285.401 316.343,264.373 C319.086,256.144 319.086,246.087 316.343,237.859 C332.8,237.859 348.343,226.888 353.829,210.43 L354.743,209.516 C358.4,199.459 357.486,187.573 352.914,178.43 C352.121,176.844 351.211,175.317 350.207,173.851 C369.39,170.177 384,152.816 384,132.714 C384,124.485 381.257,116.257 376.686,109.857 L470.857,109.857 C493.714,109.857 512,91.571 512,68.714 C512,45.857 493.714,27.571 470.857,27.571 Z M78.629,257.971 C76.8,257.057 74.972,256.142 73.143,256.142 L36.571,256.142 C26.514,256.142 18.285,247.913 18.285,238.771 L18.285,73.286 C18.285,63.229 26.514,55 36.571,55 L73.142,55 C75.885,55 78.628,54.086 80.456,51.343 C80.456,51.343 107.885,19.343 145.37,18.429 L146.284,18.429 C174.627,18.429 187.427,20.258 202.055,42.2 L202.969,43.114 L210.128,51.575 C232.164,80.472 256.077,112.217 265.141,125.4 C274.284,140.029 277.027,151.914 271.541,159.229 C267.698,163.841 259.979,165.855 252.727,164.754 C251.641,164.529 250.593,164.215 249.598,163.8 C238.627,159.229 219.427,146.429 198.398,129.057 C197.433,128.333 196.404,127.806 195.346,127.465 C170.43,106.558 147.258,82.779 142.627,71.457 C140.798,66.886 135.313,65.057 130.741,66.886 C126.17,68.715 124.341,74.2 126.17,78.772 C131.904,92.15 154.119,115.765 178.719,137.091 C176.673,140.053 175.079,143.241 173.713,146.429 L172.799,148.258 C169.277,158.383 170.005,168.926 174.042,177.96 C160.009,180.727 147.566,190.746 142.627,204.944 C135.313,225.973 147.198,249.744 168.227,257.058 L230.827,278.727 C216.303,281.291 198.877,283.572 182.855,283.572 C118.857,283.571 111.543,282.657 78.629,257.971 Z M189.257,196.714 L260.566,221.398 L284.97,229.886 C289.279,231.55 292.722,234.158 295.226,237.356 C295.935,238.389 296.579,239.474 297.142,240.6 C299.885,246.086 299.885,252.486 298.056,257.971 C294.399,269.857 281.599,276.257 268.799,271.685 C267.9,271.685 267,271.465 266.101,271.349 L174.628,239.685 C161.828,235.114 156.342,222.314 159.999,210.428 C161.828,204.942 166.399,200.371 171.885,197.628 C174.628,195.799 178.285,194.885 181.942,194.885 C184.686,194.886 187.429,195.8 189.257,196.714 Z M322.743,175.686 C328.229,177.515 332.8,181.172 335.543,186.657 C338.286,191.228 338.286,197.628 336.457,203.114 L335.543,204.943 C334.177,209.042 331.788,212.628 328.38,215.325 C322.896,218.877 315.968,219.878 309.029,217.743 L290.743,211.343 C289.014,210.767 287.376,210.646 285.886,210.892 L266.036,204.021 L202.972,182.086 C191.086,177.515 185.601,165.629 189.258,153.743 L190.172,151.914 C190.172,151 191.086,149.171 192.001,148.257 C192.755,148.84 193.497,149.406 194.243,149.979 C210.61,162.972 226.739,173.86 238.678,179.131 C238.935,179.245 239.19,179.356 239.443,179.464 C240.098,179.744 240.744,180.013 241.372,180.257 C245.784,182.115 250.551,182.966 255.401,182.968 C255.901,182.984 256.4,183 256.914,183 C263.25,183 269.58,181.467 275.035,178.594 C282.236,175.376 288.737,170.558 293.485,164.714 L322.743,175.686 Z M342.857,154.657 L339.2,154.657 L318.171,151.914 C316.741,151.914 315.311,152.183 313.993,152.692 L293.486,145.514 C292.947,145.299 292.409,145.138 291.875,145.023 C290.947,136.907 287.556,127.019 279.771,115.343 C278.743,113.661 277.495,111.729 276.077,109.606 L344.685,108.029 C350.171,108.029 355.656,110.772 359.314,114.429 C362.971,119 365.714,124.486 365.714,130.886 C365.714,143.686 355.657,154.657 342.857,154.657 Z M470.857,91.571 L344.686,91.571 C343.772,91.571 343.772,91.571 342.857,91.571 L265.143,91.571 C264.56,91.571 264.003,91.621 263.464,91.701 C253.336,77.804 240.678,61.169 228.895,45.857 L470.858,45.857 C483.658,45.857 493.715,55.914 493.715,68.714 C493.715,81.514 483.657,91.571 470.857,91.571 Z" id="Shape"></path>
        </g>
    </g>
</svg>