<?xml version="1.0" encoding="UTF-8"?>
<svg width="38px" height="37px" viewBox="0 0 38 37" version="1.1" xmlns="http://www.w3.org/2000/svg" xmlns:xlink="http://www.w3.org/1999/xlink">
    <!-- Generator: Sketch 48.2 (47327) - http://www.bohemiancoding.com/sketch -->
    <title>dancing</title>
    <desc>Created with Sketch.</desc>
    <defs></defs>
    <g id="Desktop-HD-Copy" stroke="none" stroke-width="1" fill="none" fill-rule="evenodd" transform="translate(-205.000000, -621.000000)">
        <g id="dancing" transform="translate(205.000000, 621.000000)" fill="#000000" fill-rule="nonzero">
            <path d="M6.33333333,17.818408 C8.43204167,17.818408 10.1333333,16.1679011 10.1333333,14.1318408 C10.1333333,12.0957805 8.43204167,10.4452736 6.33333333,10.4452736 C4.234625,10.4452736 2.53333333,12.0957805 2.53333333,14.1318408 C2.53539167,16.1670563 4.23549583,17.8164111 6.33333333,17.818408 Z M6.33333333,11.6741294 C7.73244583,11.6741294 8.86666667,12.7744928 8.86666667,14.1318408 C8.86666667,15.4891887 7.73244583,16.5895522 6.33333333,16.5895522 C4.93422083,16.5895522 3.8,15.4891887 3.8,14.1318408 C3.8,12.7744928 4.93422083,11.6741294 6.33333333,11.6741294 Z" id="Shape"></path>
            <path d="M5.06666667,4.91542289 C6.81466667,4.91741978 8.231275,6.29174129 8.23333333,7.98756219 C8.23333333,8.32687998 8.51690833,8.60199005 8.86666667,8.60199005 C9.216425,8.60199005 9.5,8.32687998 9.5,7.98756219 C9.50205833,6.29174129 10.9186667,4.91741978 12.6666667,4.91542289 C13.016425,4.91542289 13.3,4.64031281 13.3,4.30099502 C13.3,3.96167724 13.016425,3.68656716 12.6666667,3.68656716 C10.9186667,3.68457027 9.50205833,2.31024876 9.5,0.614427861 C9.5,0.275110075 9.216425,0 8.86666667,0 C8.51690833,0 8.23333333,0.275110075 8.23333333,0.614427861 C8.231275,2.31024876 6.81466667,3.68457027 5.06666667,3.68656716 C4.71690833,3.68656716 4.43333333,3.96167724 4.43333333,4.30099502 C4.43333333,4.64031281 4.71690833,4.91542289 5.06666667,4.91542289 Z M8.86666667,2.82636816 C9.2423125,3.43042755 9.76402083,3.9365625 10.3866667,4.30099502 C9.76402083,4.66542755 9.2423125,5.1715625 8.86666667,5.77562189 C8.49102083,5.1715625 7.9693125,4.66542755 7.34666667,4.30099502 C7.9693125,3.9365625 8.49102083,3.43042755 8.86666667,2.82636816 Z" id="Shape"></path>
            <path d="M30.4,30.721393 C28.652,30.7193961 27.2353917,29.3450746 27.2333333,27.6492537 C27.2333333,27.3099359 26.9497583,27.0348259 26.6,27.0348259 C26.2502417,27.0348259 25.9666667,27.3099359 25.9666667,27.6492537 C25.9646083,29.3450746 24.548,30.7193961 22.8,30.721393 C22.4502417,30.721393 22.1666667,30.9965031 22.1666667,31.3358209 C22.1666667,31.6751387 22.4502417,31.9502488 22.8,31.9502488 C24.548,31.9522456 25.9646083,33.3265672 25.9666667,35.0223881 C25.9666667,35.3617058 26.2502417,35.6368159 26.6,35.6368159 C26.9497583,35.6368159 27.2333333,35.3617058 27.2333333,35.0223881 C27.2353917,33.3265672 28.652,31.9522456 30.4,31.9502488 C30.7497583,31.9502488 31.0333333,31.6751387 31.0333333,31.3358209 C31.0333333,30.9965031 30.7497583,30.721393 30.4,30.721393 Z M26.6,32.8104478 C26.2243542,32.2063884 25.7026458,31.7002534 25.08,31.3358209 C25.7026458,30.9713884 26.2243542,30.4652534 26.6,29.861194 C26.9756458,30.4652534 27.4973542,30.9713884 28.12,31.3358209 C27.4973542,31.7002534 26.9756458,32.2063884 26.6,32.8104478 Z" id="Shape"></path>
            <path d="M15.2,12.2885572 C14.1506458,12.2885572 13.3,13.1138106 13.3,14.1318408 L13.3,16.5895522 L10.1333333,16.5895522 L10.1333333,17.818408 L13.9333333,17.818408 C14.2830917,17.818408 14.5666667,17.5432979 14.5666667,17.2039801 L14.5666667,14.1318408 C14.5666667,13.792523 14.8502417,13.5174129 15.2,13.5174129 C15.5497583,13.5174129 15.8333333,13.792523 15.8333333,14.1318408 L15.8333333,18.4328358 C15.8333333,18.7721536 15.5497583,19.0472637 15.2,19.0472637 L10.1333333,19.0472637 C9.783575,19.0472637 9.5,19.3223738 9.5,19.6616915 L9.5,22.7338308 C9.5,22.8968078 9.56681667,23.0530261 9.68556667,23.1682313 L13.1144333,26.4947438 C13.2333417,26.6101026 13.3001583,26.7666281 13.3,26.9297587 L13.3,32.5646766 C13.3,32.9039944 13.016425,33.1791045 12.6666667,33.1791045 C12.3169083,33.1791045 12.0333333,32.9039944 12.0333333,32.5646766 L12.0333333,27.6492537 C12.0333333,27.4862767 11.9665167,27.3300585 11.8477667,27.2148532 L9.31443333,24.7571418 C9.06711667,24.5172845 8.66621667,24.5172845 8.4189,24.7571418 L6.5189,26.6004254 C6.2716625,26.8403595 6.2716625,27.2292923 6.5189,27.4692264 L8.04776667,28.9524552 C8.166675,29.0678141 8.23349167,29.2243396 8.23333333,29.3874701 L8.23333333,35.0223881 C8.23333333,35.3617058 7.94975833,35.6368159 7.6,35.6368159 C7.25024167,35.6368159 6.96666667,35.3617058 6.96666667,35.0223881 L6.96666667,30.1069652 C6.96666667,29.9439882 6.89985,29.7877699 6.7811,29.6725647 L3.98556667,26.9604801 C3.86665833,26.8451213 3.79984167,26.6885958 3.8,26.5254652 L3.8,24.5771144 L5.06666667,24.5771144 C6.11602083,24.5771144 6.96666667,23.751861 6.96666667,22.7338308 C6.96666667,21.7158007 6.11602083,20.8905473 5.06666667,20.8905473 L3.8,20.8905473 L3.8,19.0472637 L2.53333333,19.0472637 L2.53333333,21.5049751 C2.53333333,21.8442929 2.81690833,22.119403 3.16666667,22.119403 L5.06666667,22.119403 C5.416425,22.119403 5.7,22.3945131 5.7,22.7338308 C5.7,23.0731486 5.416425,23.3482587 5.06666667,23.3482587 L1.9,23.3482587 C1.55024167,23.3482587 1.26666667,23.0731486 1.26666667,22.7338308 L1.26666667,18.4328358 C1.26666667,18.093518 1.55024167,17.818408 1.9,17.818408 L1.9,16.5895522 C0.850645833,16.5895522 0,17.4148057 0,18.4328358 L0,22.7338308 C0,23.751861 0.850645833,24.5771144 1.9,24.5771144 L2.53333333,24.5771144 L2.53333333,26.5254652 C2.53206667,27.0147034 2.73251667,27.484203 3.09003333,27.8292811 L5.7,30.3613383 L5.7,35.0223881 C5.7,36.0404182 6.55064583,36.8656716 7.6,36.8656716 C8.64935417,36.8656716 9.5,36.0404182 9.5,35.0223881 L9.5,29.3874701 C9.50158333,28.8981552 9.30113333,28.4285787 8.9433,28.0836542 L7.8622,27.0348259 L8.86666667,26.0603433 L10.7666667,27.9036269 L10.7666667,32.5646766 C10.7666667,33.5827068 11.6173125,34.4079602 12.6666667,34.4079602 C13.7160208,34.4079602 14.5666667,33.5827068 14.5666667,32.5646766 L14.5666667,26.9297587 C14.56825,26.4404437 14.3678,25.9708672 14.0099667,25.6259428 L10.7666667,22.4794577 L10.7666667,20.2761194 L15.2,20.2761194 C16.2493542,20.2761194 17.1,19.450866 17.1,18.4328358 L17.1,14.1318408 C17.1,13.1138106 16.2493542,12.2885572 15.2,12.2885572 Z" id="Shape"></path>
            <path d="M29.1333333,7.37313433 C31.2320417,7.37313433 32.9333333,5.72262749 32.9333333,3.68656716 C32.9333333,1.65050684 31.2320417,0 29.1333333,0 C27.034625,0 25.3333333,1.65050684 25.3333333,3.68656716 C25.3353917,5.72178265 27.0354958,7.37113744 29.1333333,7.37313433 Z M29.1333333,1.22885572 C30.5324458,1.22885572 31.6666667,2.32921922 31.6666667,3.68656716 C31.6666667,5.04391511 30.5324458,6.14427861 29.1333333,6.14427861 C27.7342208,6.14427861 26.6,5.04391511 26.6,3.68656716 C26.6,2.32921922 27.7342208,1.22885572 29.1333333,1.22885572 Z" id="Shape"></path>
            <path d="M36.1,6.14427861 L32.3,6.14427861 L32.3,7.37313433 L36.1,7.37313433 C36.4497583,7.37313433 36.7333333,7.6482444 36.7333333,7.98756219 L36.7333333,11.6741294 C36.7333333,12.0134471 36.4497583,12.2885572 36.1,12.2885572 C35.7502417,12.2885572 35.4666667,12.0134471 35.4666667,11.6741294 L35.4666667,9.21641791 C35.4666667,8.87710012 35.1830917,8.60199005 34.8333333,8.60199005 L32.3,8.60199005 C31.9502417,8.60199005 31.6666667,8.87710012 31.6666667,9.21641791 L31.6666667,16.0801915 C31.666825,16.2433221 31.6000083,16.3998476 31.4811,16.5152065 L29.3189,18.6128632 C29.0716625,18.8527973 29.0716625,19.2417301 29.3189,19.4816642 L32.2233667,22.2994303 C32.4706042,22.5393644 32.4706042,22.9282973 32.2233667,23.1682313 L32.1144333,23.2732985 C31.8671167,23.5131558 31.4662167,23.5131558 31.2189,23.2732985 L27.3099667,19.4810498 C27.0627292,19.2411157 27.0627292,18.8521828 27.3099667,18.6122488 L28.9477667,17.0233383 C29.1950042,16.7834042 29.1950042,16.3944714 28.9477667,16.1545373 L27.0477667,14.3112537 C26.80045,14.0713965 26.39955,14.0713965 26.1522333,14.3112537 L23.6189,16.7689652 C23.4999917,16.884324 23.433175,17.0408495 23.4333333,17.2039801 L23.4333333,22.119403 C23.4333333,22.4587208 23.1497583,22.7338308 22.8,22.7338308 C22.4502417,22.7338308 22.1666667,22.4587208 22.1666667,22.119403 L22.1666667,16.4844851 C22.1665083,16.3213545 22.233325,16.164829 22.3522333,16.0494701 L25.7811,12.7229577 C25.89985,12.6077525 25.9666667,12.4515342 25.9666667,12.2885572 L25.9666667,9.21641791 C25.9666667,8.87710012 25.6830917,8.60199005 25.3333333,8.60199005 L21.5333333,8.60199005 C21.183575,8.60199005 20.9,8.32687998 20.9,7.98756219 L20.9,3.68656716 C20.9,3.34724938 21.183575,3.0721393 21.5333333,3.0721393 C21.8830917,3.0721393 22.1666667,3.34724938 22.1666667,3.68656716 L22.1666667,6.75870647 C22.1666667,7.09802425 22.4502417,7.37313433 22.8,7.37313433 L25.3333333,7.37313433 L25.3333333,6.14427861 L23.4333333,6.14427861 L23.4333333,3.68656716 C23.4333333,2.668537 22.5826875,1.84328358 21.5333333,1.84328358 C20.4839792,1.84328358 19.6333333,2.668537 19.6333333,3.68656716 L19.6333333,7.98756219 C19.6333333,9.00559235 20.4839792,9.83084577 21.5333333,9.83084577 L24.7,9.83084577 L24.7,12.0341841 L21.4567,15.1806692 C21.0991833,15.5257472 20.8987333,15.9952469 20.9,16.4844851 L20.9,22.119403 C20.9,23.1374331 21.7506458,23.9626866 22.8,23.9626866 C23.8493542,23.9626866 24.7,23.1374331 24.7,22.119403 L24.7,17.4583532 L26.6,15.6150697 L27.6044667,16.5895522 L26.4144333,17.7434478 C25.6724042,18.46325 25.6722458,19.6303557 26.4141958,20.3502348 C26.414275,20.3503116 26.4143542,20.3503884 26.4144333,20.3504652 L30.3233667,24.1427139 C31.0653167,24.8622858 32.2680167,24.8622858 33.0099667,24.1427139 L33.1189,24.0376468 C33.8609292,23.3178445 33.8610875,22.1507388 33.1191375,21.4308598 C33.1190583,21.430783 33.1189792,21.4307062 33.1189,21.4306294 L30.6622,19.0472637 L32.3766333,17.3840075 C32.7344667,17.039083 32.9349167,16.5695065 32.9333333,16.0801915 L32.9333333,9.83084577 L34.2,9.83084577 L34.2,11.6741294 C34.2,12.6921595 35.0506458,13.5174129 36.1,13.5174129 C37.1493542,13.5174129 38,12.6921595 38,11.6741294 L38,7.98756219 C38,6.96953203 37.1493542,6.14427861 36.1,6.14427861 Z" id="Shape"></path>
            <rect id="Rectangle-path" x="28.5" y="3.0721393" width="1.26666667" height="1.84328358"></rect>
            <path d="M8.23333333,14.7462687 L8.23333333,12.9029851 L6.96666667,12.9029851 L6.96666667,14.1318408 L5.7,14.1318408 L5.7,15.3606965 L7.6,15.3606965 C7.94975833,15.3606965 8.23333333,15.0855864 8.23333333,14.7462687 Z" id="Shape"></path>
        </g>
    </g>
</svg>