<svg xmlns="http://www.w3.org/2000/svg" viewBox="0 0 65.89 74.57"><defs><style>.cls-1{fill:#fa2750;}</style></defs><title>Asset 1</title><g id="Layer_2" data-name="Layer 2"><g id="Layer_1-2" data-name="Layer 1"><path class="cls-1" d="M62.19,11.39.18,0,0,58.73H0L0,70a4.51,4.51,0,0,0,4.54,4.54,4.42,4.42,0,0,0,3.09-1.26L26.68,55.14l26.85-3.62a4.51,4.51,0,0,0,2.18-8l-9.23-7.24,18-17.17A4.51,4.51,0,0,0,62.19,11.39ZM4.46,8.8,39.92,36.58,24.73,51.07,4.34,53.82Zm.2,61.4c-.07.07-.1.07-.12.07a.33.33,0,0,1-.21-.09s0,0,0-.14l0-11.89,15.1-2Zm48.4-23.32a.18.18,0,0,1,.08.23c0,.13-.09.14-.18.15L32,50.09,43.34,39.26ZM61.53,16,43.06,33.59,7.47,5.71l54,9.9a.17.17,0,0,1,.16.15A.18.18,0,0,1,61.53,16Z"/></g></g></svg>