<?xml version="1.0" encoding="UTF-8"?>
<svg width="38px" height="30px" viewBox="0 0 38 30" version="1.1" xmlns="http://www.w3.org/2000/svg" xmlns:xlink="http://www.w3.org/1999/xlink">
    <!-- Generator: Sketch 48.2 (47327) - http://www.bohemiancoding.com/sketch -->
    <title>shopping</title>
    <desc>Created with Sketch.</desc>
    <defs></defs>
    <g id="Desktop-HD-Copy" stroke="none" stroke-width="1" fill="none" fill-rule="evenodd" transform="translate(-204.000000, -680.000000)">
        <g id="shopping" transform="translate(204.000000, 680.000000)" fill="#000000" fill-rule="nonzero">
            <path d="M37.3339659,0 L24.1932233,0 C24.0019687,0 23.8203057,0.077314027 23.6936978,0.212568309 C23.5668982,0.348184717 23.50839,0.527980569 23.5319851,0.707052168 C23.5594168,0.914007514 23.5722694,1.08583658 23.5722694,1.24716398 C23.5722694,3.62651674 21.5212224,5.56280762 19.0001918,5.56280762 C16.479353,5.56280762 14.4281142,3.62687887 14.4281142,1.24734504 C14.4281142,1.08601764 14.4411586,0.914188577 14.4683985,0.707233231 C14.4919936,0.528342695 14.4331018,0.348184717 14.3066857,0.212749372 C14.1798861,0.0774950903 13.998223,0.000181063295 13.8071603,0.000181063295 L0.666225792,0.000181063295 C0.298295741,0.00036212659 0,0.281734487 0,0.629194951 L0,7.42757849 C0,7.71130468 0.201421561,7.95972352 0.491084949,8.03450266 L6.54773538,9.59381976 L6.54773538,29.0586672 C6.54773538,29.4059466 6.84603112,29.6875 7.21396117,29.6875 L30.7860387,29.6875 C31.1539688,29.6875 31.4522645,29.4059466 31.4522645,29.0586672 L31.4522645,9.59327657 L37.508915,8.03395947 C37.798962,7.95918033 37.9999999,7.71076149 37.9999999,7.4270353 L37.9999999,0.628832824 C38.0001917,0.281553424 37.701896,0 37.3339659,0 Z M36.6677402,6.94685545 L30.6110897,8.50617254 C30.3210427,8.58095168 30.1200048,8.82937052 30.1200048,9.11309671 L30.1200048,28.4296533 L7.88018696,28.4296533 L7.88018696,9.11309671 C7.88018696,8.82937052 7.6787654,8.58095168 7.38910202,8.50617254 L1.33245158,6.94685545 L1.33245158,1.25784671 L13.0956626,1.25784671 C13.1016093,4.32596425 15.7480968,6.82011114 19.0001918,6.82011114 C22.2522868,6.82011114 24.8983906,4.32614531 24.904721,1.25784671 L36.667932,1.25784671 L36.667932,6.94685545 L36.6677402,6.94685545 Z" id="Shape"></path>
            <path d="M14.6986365,8.70160943 L12.0951751,5.57037765 C11.8438485,5.26820745 11.3122108,5.26820745 11.0612655,5.57037765 L8.45761346,8.70160943 C8.36360435,8.81462512 8.3125,8.95497739 8.3125,9.09954941 L8.3125,15.9881859 C8.3125,16.3398922 8.60863825,16.625 8.97437757,16.625 L14.1814911,16.625 C14.5472304,16.625 14.8433686,16.3397088 14.84375,15.9881859 L14.84375,9.09954941 C14.84375,8.95497739 14.7926457,8.81425818 14.6986365,8.70160943 Z M13.5196135,15.3513719 L9.63644583,15.3513719 L9.63644583,9.32319572 L11.5780297,6.98802738 L13.5196135,9.32319572 L13.5196135,15.3513719 Z" id="Shape"></path>
            <path d="M11.578125,0 C11.0864937,0 10.6875,0.265976342 10.6875,0.593706511 L10.6875,6.53129349 C10.6875,6.85902366 11.0864937,7.125 11.578125,7.125 C12.0697563,7.125 12.46875,6.85902366 12.46875,6.53129349 L12.46875,0.593880466 C12.46875,0.265976342 12.0697563,0 11.578125,0 Z" id="Shape"></path>
            <path d="M30.5781249,5.34375 C30.0864937,5.34375 29.6875,5.60972245 29.6875,5.93744781 L29.6875,10.6875522 C29.6875,11.0152776 30.0864937,11.28125 30.5781249,11.28125 C31.0697562,11.28125 31.4687499,11.0152776 31.4687499,10.6875522 L31.4687499,5.93762177 C31.4690108,5.60972245 31.0700171,5.34375 30.5781249,5.34375 Z" id="Shape"></path>
            <path d="M7.42187494,5.34375 C6.93024371,5.34375 6.53125,5.63018122 6.53125,5.98311544 L6.53125,13.0168846 C6.53125,13.3698188 6.93024371,13.65625 7.42187494,13.65625 C7.91350616,13.65625 8.31249987,13.3698188 8.31249987,13.0168846 L8.31249987,5.98330277 C8.31276082,5.63018122 7.91376711,5.34375 7.42187494,5.34375 Z" id="Shape"></path>
            <path d="M27.2492882,9.5 L21.4382118,9.5 C21.0753979,9.5 20.78125,9.76584545 20.78125,10.09375 C20.78125,10.4216545 21.0753979,10.6875 21.4382118,10.6875 L27.2492882,10.6875 C27.6121021,10.6875 27.90625,10.4216545 27.90625,10.09375 C27.90625,9.76584545 27.6121021,9.5 27.2492882,9.5 Z" id="Shape"></path>
        </g>
    </g>
</svg>